<svg width="158" height="37" viewBox="0 0 158 37" fill="none" xmlns="http://www.w3.org/2000/svg">
<circle cx="18" cy="18" r="17.5" stroke="#FDFDFD" stroke-opacity="0.4"/>
<path d="M12 20.5005C12 20.7657 11.8946 21.0201 11.7071 21.2076C11.5196 21.3951 11.2652 21.5005 11 21.5005C10.7348 21.5005 10.4804 21.3951 10.2929 21.2076C10.1054 21.0201 10 20.7657 10 20.5005V16.0005C10 15.7353 10.1054 15.4809 10.2929 15.2934C10.4804 15.1058 10.7348 15.0005 11 15.0005C11.2652 15.0005 11.5196 15.1058 11.7071 15.2934C11.8946 15.4809 12 15.7353 12 16.0005V20.5005ZM26 20.5005C26 20.7657 25.8946 21.0201 25.7071 21.2076C25.5196 21.3951 25.2652 21.5005 25 21.5005C24.7348 21.5005 24.4804 21.3951 24.2929 21.2076C24.1054 21.0201 24 20.7657 24 20.5005V16.0005C24 15.7353 24.1054 15.4809 24.2929 15.2934C24.4804 15.1058 24.7348 15.0005 25 15.0005C25.2652 15.0005 25.5196 15.1058 25.7071 15.2934C25.8946 15.4809 26 15.7353 26 16.0005V20.5005ZM17 26C17 26.2652 16.8946 26.5196 16.7071 26.7071C16.5196 26.8946 16.2652 27 16 27C15.7348 27 15.4804 26.8946 15.2929 26.7071C15.1054 26.5196 15 26.2652 15 26V21.5C15 21.2348 15.1054 20.9804 15.2929 20.7929C15.4804 20.6053 15.7348 20.5 16 20.5C16.2652 20.5 16.5196 20.6053 16.7071 20.7929C16.8946 20.9804 17 21.2348 17 21.5V26ZM21 26C21 26.2652 20.8946 26.5196 20.7071 26.7071C20.5196 26.8946 20.2652 27 20 27C19.7348 27 19.4804 26.8946 19.2929 26.7071C19.1054 26.5196 19 26.2652 19 26V21.5C19 21.2348 19.1054 20.9804 19.2929 20.7929C19.4804 20.6053 19.7348 20.5 20 20.5C20.2652 20.5 20.5196 20.6053 20.7071 20.7929C20.8946 20.9804 21 21.2348 21 21.5V26Z" fill="#7CB342"/>
<path d="M13 15.0005V22.5C13 22.7652 13.1054 23.0196 13.2929 23.2071C13.4804 23.3946 13.7348 23.5 14 23.5H22C22.2652 23.5 22.5196 23.3946 22.7071 23.2071C22.8946 23.0196 23 22.7652 23 22.5V15.0005H13ZM18 10C15 10 13.1725 11.8225 13 14H23C22.827 11.8225 21 10 18 10ZM16 12.799C15.8674 12.799 15.7402 12.7463 15.6464 12.6526C15.5527 12.5588 15.5 12.4316 15.5 12.299C15.5 12.1664 15.5527 12.0392 15.6464 11.9454C15.7402 11.8517 15.8674 11.799 16 11.799C16.1326 11.799 16.2598 11.8517 16.3536 11.9454C16.4473 12.0392 16.5 12.1664 16.5 12.299C16.5 12.4316 16.4473 12.5588 16.3536 12.6526C16.2598 12.7463 16.1326 12.799 16 12.799ZM20 12.799C19.8674 12.799 19.7402 12.7463 19.6464 12.6526C19.5527 12.5588 19.5 12.4316 19.5 12.299C19.5 12.1664 19.5527 12.0392 19.6464 11.9454C19.7402 11.8517 19.8674 11.799 20 11.799C20.1326 11.799 20.2598 11.8517 20.3536 11.9454C20.4473 12.0392 20.5 12.1664 20.5 12.299C20.5 12.4316 20.4473 12.5588 20.3536 12.6526C20.2598 12.7463 20.1326 12.799 20 12.799Z" fill="#7CB342"/>
<path d="M21 9.5L20.167 10.7495M15 9.5L15.6665 10.541" stroke="#7CB342" stroke-width="2" stroke-linecap="round"/>
<circle cx="140" cy="19" r="17.5" stroke="white" stroke-opacity="0.4"/>
<g clip-path="url(#clip0_2045_112)">
<path d="M140 7C133.374 7 128 12.373 128 19C128 24.302 131.438 28.8 136.207 30.387C136.806 30.498 137 30.126 137 29.81V27.576C133.662 28.302 132.967 26.16 132.967 26.16C132.421 24.773 131.634 24.404 131.634 24.404C130.545 23.659 131.717 23.675 131.717 23.675C132.922 23.759 133.556 24.912 133.556 24.912C134.626 26.746 136.363 26.216 137.048 25.909C137.155 25.134 137.466 24.604 137.81 24.305C135.145 24 132.343 22.971 132.343 18.374C132.343 17.063 132.812 15.993 133.579 15.153C133.455 14.85 133.044 13.629 133.696 11.977C133.696 11.977 134.704 11.655 136.997 13.207C137.954 12.941 138.98 12.808 140 12.803C141.02 12.808 142.047 12.941 143.006 13.207C145.297 11.655 146.303 11.977 146.303 11.977C146.956 13.63 146.545 14.851 146.421 15.153C147.191 15.993 147.656 17.064 147.656 18.374C147.656 22.983 144.849 23.998 142.177 24.295C142.607 24.667 143 25.397 143 26.517V29.81C143 30.129 143.192 30.504 143.801 30.386C148.566 28.797 152 24.3 152 19C152 12.373 146.627 7 140 7Z" fill="white"/>
</g>
<circle cx="110" cy="19" r="17.5" stroke="white" stroke-opacity="0.4"/>
<path d="M114.617 19.6343C114.6 17.1112 116.684 15.8751 116.785 15.8243C115.599 14.097 113.77 13.86 113.11 13.843C111.568 13.6737 110.078 14.7744 109.282 14.7744C108.485 14.7744 107.266 13.86 105.962 13.8938C104.285 13.9277 102.71 14.8929 101.846 16.4C100.067 19.4819 101.388 24.0032 103.099 26.4755C103.946 27.6948 104.945 29.0494 106.25 28.9986C107.52 28.9478 107.994 28.1858 109.536 28.1858C111.06 28.1858 111.5 28.9986 112.839 28.9648C114.211 28.9478 115.074 27.7456 115.887 26.5094C116.87 25.1208 117.259 23.7323 117.276 23.6645C117.276 23.6645 114.651 22.6655 114.617 19.6343ZM112.11 12.2005C112.788 11.3368 113.262 10.1854 113.127 9C112.127 9.0508 110.891 9.69428 110.179 10.524C109.553 11.2691 108.977 12.4714 109.129 13.606C110.247 13.6906 111.399 13.0471 112.11 12.2005Z" fill="white"/>
<circle cx="48" cy="18" r="17.5" stroke="white" stroke-opacity="0.4"/>
<g clip-path="url(#clip1_2045_112)">
<path d="M40.8946 25.1054L36.7887 20.9995C36.3017 20.5003 36 19.7944 36 19.1045C36 18.7851 36.18 18.2858 36.3158 18L40.1059 10.1058L40.8946 25.1054Z" fill="#01579B"/>
<path d="M54.9484 10.8946L50.8425 6.78872C50.4844 6.42872 49.7379 6 49.1063 6C48.5629 6 48.03 6.10941 47.6859 6.31584L40.1077 10.1059L54.9484 10.8946ZM45.7892 30H55.7371V25.7371L48.3159 23.3675L41.5263 25.7371L45.7892 30Z" fill="#40C4FF"/>
<path d="M40.1058 22.8946C40.1058 24.1615 40.2646 24.4721 40.8946 25.1055L41.5262 25.7371H55.7371L48.7905 17.843L40.1058 10.1058V22.8946Z" fill="#29B6F6"/>
<path d="M52.7375 10.1041H40.1058L55.7371 25.7353H60V15.9463L54.9466 10.8928C54.2372 10.1818 53.6073 10.1041 52.7375 10.1041Z" fill="#01579B"/>
<path opacity="0.2" d="M41.0535 25.2625C40.4218 24.6291 40.2647 24.0045 40.2647 22.8946V10.2629L40.1077 10.1058V22.8946C40.1058 24.0044 40.1058 24.3114 41.0535 25.2624L41.5263 25.7353L41.0535 25.2625Z" fill="white"/>
<path opacity="0.2" d="M59.843 15.7892V25.5783H55.5801L55.7371 25.7371H60V15.9462L59.843 15.7892Z" fill="#263238"/>
<path opacity="0.2" d="M54.9484 10.8946C54.165 10.1111 53.5245 10.1058 52.5805 10.1058H40.1077L40.2647 10.2629H52.5805C53.0516 10.2629 54.2409 10.1835 54.9484 10.8946Z" fill="white"/>
<path opacity="0.2" d="M59.843 15.7892L54.9484 10.8945L50.8425 6.78881C50.4844 6.42872 49.738 6 49.1063 6C48.5629 6 48.03 6.10941 47.686 6.31584L40.1077 10.1059L36.3176 18C36.1817 18.2876 36.0017 18.7869 36.0017 19.1046C36.0017 19.7945 36.3053 20.4984 36.7905 20.9995L40.5734 24.7561C40.6634 24.8672 40.7694 24.9802 40.8946 25.1054L41.0516 25.2624L41.5245 25.7353L45.6304 29.8412L45.7874 29.9982H55.7335V25.7354H59.9964V15.9461L59.843 15.7892Z" fill="url(#paint0_radial_2045_112)"/>
</g>
<circle cx="79" cy="19" r="17.5" stroke="white" stroke-opacity="0.4"/>
<g clip-path="url(#clip2_2045_112)">
<path d="M78.937 7.00024L67.0002 18.937L70.6949 22.6317L86.3265 7.00024H78.937ZM78.8538 18.0081L72.4626 24.3994L76.1711 28.1634L79.8589 24.4756L86.3265 18.0081H78.8538Z" fill="#47C5FB"/>
<path d="M76.171 28.1633L78.9785 30.9708H86.3263L79.8588 24.4755L76.171 28.1633Z" fill="#00569E"/>
<path d="M72.4208 24.4408L76.1155 20.7461L79.8587 24.4754L76.1709 28.1632L72.4208 24.4408Z" fill="#00B5F8"/>
<path d="M76.171 28.1633L79.2418 27.1443L79.5468 24.7874L76.171 28.1633Z" fill="url(#paint1_linear_2045_112)" fill-opacity="0.8"/>
</g>
<defs>
<radialGradient id="paint0_radial_2045_112" cx="0" cy="0" r="1" gradientUnits="userSpaceOnUse" gradientTransform="translate(1235.73 1205.78) scale(1199.83 1199.83)">
<stop stop-color="white" stop-opacity="0.1"/>
<stop offset="1" stop-color="white" stop-opacity="0"/>
</radialGradient>
<linearGradient id="paint1_linear_2045_112" x1="89.5123" y1="115.913" x2="332.387" y2="203.433" gradientUnits="userSpaceOnUse">
<stop/>
<stop offset="1" stop-opacity="0"/>
</linearGradient>
<clipPath id="clip0_2045_112">
<rect width="24" height="24" fill="white" transform="translate(128 7)"/>
</clipPath>
<clipPath id="clip1_2045_112">
<rect width="24" height="24" fill="white" transform="translate(36 6)"/>
</clipPath>
<clipPath id="clip2_2045_112">
<rect width="19.3817" height="24" fill="white" transform="translate(67 7)"/>
</clipPath>
</defs>
</svg>
