<svg width="128" height="37" viewBox="0 0 128 37" fill="none" xmlns="http://www.w3.org/2000/svg">
<circle cx="110" cy="18" r="17.5" stroke="white" stroke-opacity="0.4"/>
<path d="M114.617 18.6343C114.6 16.1112 116.684 14.8751 116.785 14.8243C115.599 13.097 113.77 12.86 113.11 12.843C111.568 12.6737 110.078 13.7744 109.282 13.7744C108.485 13.7744 107.266 12.86 105.962 12.8938C104.285 12.9277 102.71 13.8929 101.846 15.4C100.067 18.4819 101.388 23.0032 103.099 25.4755C103.946 26.6948 104.945 28.0494 106.25 27.9986C107.52 27.9478 107.994 27.1858 109.536 27.1858C111.06 27.1858 111.5 27.9986 112.839 27.9648C114.211 27.9478 115.074 26.7456 115.887 25.5094C116.87 24.1208 117.259 22.7323 117.276 22.6645C117.276 22.6645 114.651 21.6655 114.617 18.6343ZM112.11 11.2005C112.788 10.3368 113.262 9.18536 113.127 8C112.127 8.0508 110.891 8.69428 110.179 9.52403C109.553 10.2691 108.977 11.4714 109.129 12.606C110.247 12.6906 111.399 12.0471 112.11 11.2005Z" fill="white"/>
<circle cx="18" cy="18" r="17.5" stroke="white" stroke-opacity="0.4"/>
<g clip-path="url(#clip0_2013_76)">
<path d="M10.8946 25.1054L6.78872 20.9995C6.30169 20.5003 6 19.7944 6 19.1045C6 18.7851 6.18 18.2858 6.31584 18L10.1059 10.1058L10.8946 25.1054Z" fill="#01579B"/>
<path d="M24.9484 10.8946L20.8425 6.78872C20.4844 6.42872 19.7379 6 19.1063 6C18.5629 6 18.03 6.10941 17.6859 6.31584L10.1077 10.1059L24.9484 10.8946ZM15.7892 30H25.7371V25.7371L18.3159 23.3675L11.5263 25.7371L15.7892 30Z" fill="#40C4FF"/>
<path d="M10.1058 22.8946C10.1058 24.1615 10.2646 24.4721 10.8946 25.1055L11.5262 25.7371H25.7371L18.7905 17.843L10.1058 10.1058V22.8946Z" fill="#29B6F6"/>
<path d="M22.7375 10.1041H10.1058L25.7371 25.7353H30V15.9463L24.9466 10.8928C24.2372 10.1818 23.6073 10.1041 22.7375 10.1041Z" fill="#01579B"/>
<path opacity="0.2" d="M11.0535 25.2625C10.4218 24.6291 10.2647 24.0045 10.2647 22.8946V10.2629L10.1077 10.1058V22.8946C10.1058 24.0044 10.1058 24.3114 11.0535 25.2624L11.5263 25.7353L11.0535 25.2625Z" fill="white"/>
<path opacity="0.2" d="M29.843 15.7892V25.5783H25.5801L25.7371 25.7371H30V15.9462L29.843 15.7892Z" fill="#263238"/>
<path opacity="0.2" d="M24.9484 10.8946C24.165 10.1111 23.5245 10.1058 22.5805 10.1058H10.1077L10.2647 10.2629H22.5805C23.0516 10.2629 24.2409 10.1835 24.9484 10.8946Z" fill="white"/>
<path opacity="0.2" d="M29.843 15.7892L24.9484 10.8945L20.8425 6.78881C20.4844 6.42872 19.738 6 19.1063 6C18.5629 6 18.03 6.10941 17.686 6.31584L10.1077 10.1059L6.31765 18C6.18171 18.2876 6.00171 18.7869 6.00171 19.1046C6.00171 19.7945 6.30527 20.4984 6.79052 20.9995L10.5734 24.7561C10.6634 24.8672 10.7694 24.9802 10.8946 25.1054L11.0516 25.2624L11.5245 25.7353L15.6304 29.8412L15.7874 29.9982H25.7335V25.7354H29.9964V15.9461L29.843 15.7892Z" fill="url(#paint0_radial_2013_76)"/>
</g>
<circle cx="49" cy="19" r="17.5" stroke="white" stroke-opacity="0.4"/>
<g clip-path="url(#clip1_2013_76)">
<path d="M48.937 7.00024L37.0002 18.937L40.6949 22.6317L56.3265 7.00024H48.937ZM48.8538 18.0081L42.4626 24.3994L46.1711 28.1634L49.8589 24.4756L56.3265 18.0081H48.8538Z" fill="#47C5FB"/>
<path d="M46.171 28.1633L48.9785 30.9708H56.3263L49.8588 24.4755L46.171 28.1633Z" fill="#00569E"/>
<path d="M42.4208 24.4408L46.1155 20.7461L49.8587 24.4754L46.1709 28.1632L42.4208 24.4408Z" fill="#00B5F8"/>
<path d="M46.171 28.1633L49.2418 27.1443L49.5468 24.7874L46.171 28.1633Z" fill="url(#paint1_linear_2013_76)" fill-opacity="0.8"/>
</g>
<circle cx="80" cy="18" r="17.5" stroke="white" stroke-opacity="0.4"/>
<g clip-path="url(#clip2_2013_76)">
<path d="M72 24.6874L72.1327 24.5016L78.4079 12.5945L78.4212 12.4684L75.655 7.27237C75.4231 6.83712 74.7706 6.94718 74.6946 7.43443L72 24.6874Z" fill="#FFC24A"/>
<path d="M72.0784 24.5458L72.1787 24.3501L78.3882 12.5678L75.6289 7.35058C75.3996 6.91989 74.8172 7.0297 74.7419 7.51183L72.0784 24.5458Z" fill="#FFA712"/>
<g filter="url(#filter0_i_2013_76)">
<path d="M72.0784 24.5458L72.1787 24.3501L78.3882 12.5678L75.6289 7.35058C75.3996 6.91989 74.8172 7.0297 74.7419 7.51183L72.0784 24.5458Z" fill="black"/>
</g>
<path d="M80.4378 16.3988L82.4975 14.2894L80.4372 10.3563C80.2416 9.984 79.6956 9.98288 79.5021 10.3563L78.4012 12.4555V12.6343L80.4378 16.3988Z" fill="#F4BD62"/>
<path d="M80.4011 16.3108L82.4036 14.2601L80.4011 10.4471C80.211 10.0852 79.7491 10.0473 79.561 10.4103L78.4544 12.5421L78.4213 12.6511L80.4011 16.3108Z" fill="#FFA50E"/>
<g filter="url(#filter1_i_2013_76)">
<path d="M80.4011 16.3108L82.4036 14.2601L80.4011 10.4471C80.211 10.0852 79.7491 10.0473 79.561 10.4103L78.4544 12.5421L78.4213 12.6511L80.4011 16.3108Z" fill="black"/>
</g>
<path d="M72 24.6874L72.0601 24.6269L72.2786 24.5382L80.3084 16.5382L80.4102 16.2612L78.4071 12.4441L72 24.6874Z" fill="#F6820C"/>
<path d="M80.6951 28.7219L87.9622 24.6689L85.887 11.888C85.8221 11.4881 85.3315 11.33 85.0452 11.6167L72 24.6873L79.2255 28.7215C79.4501 28.8469 79.703 28.9128 79.9602 28.9128C80.2175 28.9129 80.4704 28.8471 80.6951 28.7219Z" fill="#FDE068"/>
<path d="M87.8972 24.635L85.8377 11.9512C85.7733 11.5543 85.3653 11.3901 85.0813 11.6747L72.0807 24.6625L79.2269 28.6568C79.4497 28.7812 79.7007 28.8466 79.956 28.8467C80.2113 28.8467 80.4623 28.7815 80.6853 28.6572L87.8972 24.635Z" fill="#FCCA3F"/>
<path d="M80.6951 28.6026C80.4704 28.7278 80.2175 28.7936 79.9603 28.7935C79.7031 28.7934 79.4501 28.7276 79.2256 28.6023L72.0582 24.626L72.0001 24.6874L79.2256 28.7217C79.4502 28.8471 79.7031 28.9129 79.9603 28.913C80.2175 28.913 80.4705 28.8473 80.6951 28.722L87.9623 24.6691L87.9445 24.5596L80.6951 28.6026Z" fill="#EEAB37"/>
</g>
<defs>
<filter id="filter0_i_2013_76" x="72.0784" y="7.08142" width="6.30981" height="17.4644" filterUnits="userSpaceOnUse" color-interpolation-filters="sRGB">
<feFlood flood-opacity="0" result="BackgroundImageFix"/>
<feBlend mode="normal" in="SourceGraphic" in2="BackgroundImageFix" result="shape"/>
<feColorMatrix in="SourceAlpha" type="matrix" values="0 0 0 0 0 0 0 0 0 0 0 0 0 0 0 0 0 0 127 0" result="hardAlpha"/>
<feOffset/>
<feGaussianBlur stdDeviation="1.09375"/>
<feComposite in2="hardAlpha" operator="arithmetic" k2="-1" k3="1"/>
<feColorMatrix type="matrix" values="0 0 0 0 0 0 0 0 0 0 0 0 0 0 0 0 0 0 0.06 0"/>
<feBlend mode="normal" in2="shape" result="effect1_innerShadow_2013_76"/>
</filter>
<filter id="filter1_i_2013_76" x="78.4213" y="9.71863" width="4.0448" height="6.59216" filterUnits="userSpaceOnUse" color-interpolation-filters="sRGB">
<feFlood flood-opacity="0" result="BackgroundImageFix"/>
<feBlend mode="normal" in="SourceGraphic" in2="BackgroundImageFix" result="shape"/>
<feColorMatrix in="SourceAlpha" type="matrix" values="0 0 0 0 0 0 0 0 0 0 0 0 0 0 0 0 0 0 127 0" result="hardAlpha"/>
<feOffset dx="0.0625" dy="-0.5625"/>
<feGaussianBlur stdDeviation="0.21875"/>
<feComposite in2="hardAlpha" operator="arithmetic" k2="-1" k3="1"/>
<feColorMatrix type="matrix" values="0 0 0 0 0 0 0 0 0 0 0 0 0 0 0 0 0 0 0.09 0"/>
<feBlend mode="normal" in2="shape" result="effect1_innerShadow_2013_76"/>
</filter>
<radialGradient id="paint0_radial_2013_76" cx="0" cy="0" r="1" gradientUnits="userSpaceOnUse" gradientTransform="translate(1205.73 1205.78) scale(1199.83 1199.83)">
<stop stop-color="white" stop-opacity="0.1"/>
<stop offset="1" stop-color="white" stop-opacity="0"/>
</radialGradient>
<linearGradient id="paint1_linear_2013_76" x1="59.5123" y1="115.913" x2="302.387" y2="203.433" gradientUnits="userSpaceOnUse">
<stop/>
<stop offset="1" stop-opacity="0"/>
</linearGradient>
<clipPath id="clip0_2013_76">
<rect width="24" height="24" fill="white" transform="translate(6 6)"/>
</clipPath>
<clipPath id="clip1_2013_76">
<rect width="19.3817" height="24" fill="white" transform="translate(37 7)"/>
</clipPath>
<clipPath id="clip2_2013_76">
<rect width="16" height="21.9375" fill="white" transform="translate(72 7)"/>
</clipPath>
</defs>
</svg>
