<svg width="28" height="28" viewBox="0 0 28 28" fill="none" xmlns="http://www.w3.org/2000/svg">
<circle cx="14" cy="14" r="13.4539" fill="#E8F4FE" stroke="white" stroke-width="1.09216"/>
<path d="M8 17.0005C8 17.2657 7.89464 17.5201 7.70711 17.7076C7.51957 17.8951 7.26522 18.0005 7 18.0005C6.73478 18.0005 6.48043 17.8951 6.29289 17.7076C6.10536 17.5201 6 17.2657 6 17.0005V12.5005C6 12.2353 6.10536 11.9809 6.29289 11.7934C6.48043 11.6058 6.73478 11.5005 7 11.5005C7.26522 11.5005 7.51957 11.6058 7.70711 11.7934C7.89464 11.9809 8 12.2353 8 12.5005V17.0005ZM22 17.0005C22 17.2657 21.8946 17.5201 21.7071 17.7076C21.5196 17.8951 21.2652 18.0005 21 18.0005C20.7348 18.0005 20.4804 17.8951 20.2929 17.7076C20.1054 17.5201 20 17.2657 20 17.0005V12.5005C20 12.2353 20.1054 11.9809 20.2929 11.7934C20.4804 11.6058 20.7348 11.5005 21 11.5005C21.2652 11.5005 21.5196 11.6058 21.7071 11.7934C21.8946 11.9809 22 12.2353 22 12.5005V17.0005ZM13 22.5C13 22.7652 12.8946 23.0196 12.7071 23.2071C12.5196 23.3946 12.2652 23.5 12 23.5C11.7348 23.5 11.4804 23.3946 11.2929 23.2071C11.1054 23.0196 11 22.7652 11 22.5V18C11 17.7348 11.1054 17.4804 11.2929 17.2929C11.4804 17.1053 11.7348 17 12 17C12.2652 17 12.5196 17.1053 12.7071 17.2929C12.8946 17.4804 13 17.7348 13 18V22.5ZM17 22.5C17 22.7652 16.8946 23.0196 16.7071 23.2071C16.5196 23.3946 16.2652 23.5 16 23.5C15.7348 23.5 15.4804 23.3946 15.2929 23.2071C15.1054 23.0196 15 22.7652 15 22.5V18C15 17.7348 15.1054 17.4804 15.2929 17.2929C15.4804 17.1053 15.7348 17 16 17C16.2652 17 16.5196 17.1053 16.7071 17.2929C16.8946 17.4804 17 17.7348 17 18V22.5Z" fill="#7CB342"/>
<path d="M9 11.5005V19C9 19.2652 9.10536 19.5196 9.29289 19.7071C9.48043 19.8946 9.73478 20 10 20H18C18.2652 20 18.5196 19.8946 18.7071 19.7071C18.8946 19.5196 19 19.2652 19 19V11.5005H9ZM14 6.5C11 6.5 9.1725 8.3225 9 10.5H19C18.827 8.3225 17 6.5 14 6.5ZM12 9.299C11.8674 9.299 11.7402 9.24632 11.6464 9.15255C11.5527 9.05879 11.5 8.93161 11.5 8.799C11.5 8.66639 11.5527 8.53921 11.6464 8.44545C11.7402 8.35168 11.8674 8.299 12 8.299C12.1326 8.299 12.2598 8.35168 12.3536 8.44545C12.4473 8.53921 12.5 8.66639 12.5 8.799C12.5 8.93161 12.4473 9.05879 12.3536 9.15255C12.2598 9.24632 12.1326 9.299 12 9.299ZM16 9.299C15.8674 9.299 15.7402 9.24632 15.6464 9.15255C15.5527 9.05879 15.5 8.93161 15.5 8.799C15.5 8.66639 15.5527 8.53921 15.6464 8.44545C15.7402 8.35168 15.8674 8.299 16 8.299C16.1326 8.299 16.2598 8.35168 16.3536 8.44545C16.4473 8.53921 16.5 8.66639 16.5 8.799C16.5 8.93161 16.4473 9.05879 16.3536 9.15255C16.2598 9.24632 16.1326 9.299 16 9.299Z" fill="#7CB342"/>
<path d="M17 6L16.167 7.2495M11 6L11.6665 7.041" stroke="#7CB342" stroke-width="2" stroke-linecap="round"/>
</svg>
