<svg width="18" height="20" viewBox="0 0 18 20" fill="none" xmlns="http://www.w3.org/2000/svg">
<path d="M14.4789 10.6343C14.4619 8.11122 16.5453 6.87506 16.647 6.82426C15.4613 5.09703 13.632 4.85996 12.9714 4.84303C11.43 4.67369 9.93946 5.77438 9.14337 5.77438C8.34728 5.77438 7.12773 4.85996 5.8235 4.89383C4.14662 4.92769 2.57137 5.89291 1.70753 7.40001C-0.0709766 10.4819 1.2502 15.0032 2.96095 17.4755C3.80786 18.6948 4.80721 20.0494 6.11144 19.9986C7.3818 19.9478 7.85607 19.1858 9.39744 19.1858C10.9219 19.1858 11.3623 19.9986 12.7004 19.9648C14.0724 19.9478 14.9362 18.7456 15.7492 17.5094C16.7317 16.1208 17.1212 14.7323 17.1382 14.6645C17.1382 14.6645 14.5128 13.6655 14.4789 10.6343ZM11.972 3.20046C12.6496 2.33684 13.1238 1.18536 12.9883 0C11.989 0.050801 10.7525 0.69428 10.0411 1.52403C9.41438 2.26911 8.83848 3.4714 8.99093 4.60595C10.1088 4.69062 11.2606 4.04714 11.972 3.20046Z" fill="black"/>
</svg>
