<svg width="28" height="28" viewBox="0 0 28 28" fill="none" xmlns="http://www.w3.org/2000/svg">
<circle cx="14" cy="14" r="13.4539" fill="#E8F4FE" stroke="white" stroke-width="1.09216"/>
<g clip-path="url(#clip0_74_626)">
<path d="M8.13609 19.268L5.00544 16.1374C4.63408 15.7567 4.40405 15.2186 4.40405 14.6925C4.40405 14.449 4.5413 14.0683 4.64488 13.8503L7.53471 7.83118L8.13609 19.268Z" fill="#01579B"/>
<path d="M18.8518 8.43248L15.7211 5.30182C15.4481 5.02733 14.8789 4.70044 14.3973 4.70044C13.983 4.70044 13.5767 4.78386 13.3143 4.94126L7.53601 7.83109L18.8518 8.43248ZM11.8681 23H19.4532V19.7496L13.7946 17.9428L8.61769 19.7496L11.8681 23Z" fill="#40C4FF"/>
<path d="M7.53467 17.5822C7.53467 18.5481 7.65576 18.7849 8.13605 19.2679L8.6177 19.7495H19.4532L14.1565 13.7304L7.53467 7.83093V17.5822Z" fill="#29B6F6"/>
<path d="M17.1661 7.82971H7.53467L19.4532 19.7482H22.7036V12.2842L18.8504 8.4311C18.3096 7.8889 17.8293 7.82971 17.1661 7.82971Z" fill="#01579B"/>
<path opacity="0.2" d="M8.25725 19.3876C7.7756 18.9047 7.65586 18.4284 7.65586 17.5822V7.95067L7.53613 7.83093V17.5821C7.5347 18.4283 7.5347 18.6624 8.25725 19.3875L8.61781 19.7481L8.25725 19.3876Z" fill="white"/>
<path opacity="0.2" d="M22.5839 12.1646V19.6286H19.3335L19.4532 19.7496H22.7036V12.2843L22.5839 12.1646Z" fill="#263238"/>
<path opacity="0.2" d="M18.8518 8.43256C18.2545 7.83518 17.7661 7.83118 17.0463 7.83118H7.53601L7.65574 7.95091H17.0463C17.4055 7.95091 18.3123 7.89036 18.8518 8.43256Z" fill="white"/>
<path opacity="0.2" d="M22.5839 12.1645L18.8519 8.43241L15.7212 5.30189C15.4482 5.02733 14.879 4.70044 14.3974 4.70044C13.9831 4.70044 13.5768 4.78386 13.3144 4.94126L7.53612 7.83109L4.64629 13.8502C4.54264 14.0695 4.4054 14.4502 4.4054 14.6924C4.4054 15.2185 4.63686 15.7552 5.00685 16.1373L7.89125 19.0016C7.95987 19.0863 8.04065 19.1725 8.13615 19.268L8.25588 19.3877L8.61644 19.7483L11.7471 22.8789L11.8668 22.9986H19.4505V19.7483H22.7009V12.2842L22.5839 12.1645Z" fill="url(#paint0_radial_74_626)"/>
</g>
<defs>
<radialGradient id="paint0_radial_74_626" cx="0" cy="0" r="1" gradientUnits="userSpaceOnUse" gradientTransform="translate(919.18 919.51) scale(914.848 914.846)">
<stop stop-color="white" stop-opacity="0.1"/>
<stop offset="1" stop-color="white" stop-opacity="0"/>
</radialGradient>
<clipPath id="clip0_74_626">
<rect width="18.2996" height="18.2996" fill="white" transform="translate(4.40405 4.70044)"/>
</clipPath>
</defs>
</svg>
