<svg width="703" height="110" viewBox="0 0 703 110" fill="none" xmlns="http://www.w3.org/2000/svg">
<mask id="path-1-outside-1_2020_28" maskUnits="userSpaceOnUse" x="3" y="36" width="694" height="58" fill="black">
<rect fill="white" x="3" y="36" width="694" height="58"/>
<path d="M4.39507 65.3163V63.9428C4.39507 59.2731 4.62398 55.3587 5.0818 52.1998C5.53962 49.0179 6.32936 46.4312 7.45102 44.4397C8.57268 42.4482 10.0949 40.926 12.0178 39.873C13.9635 38.82 16.4014 38.1104 19.3314 37.7441C22.2615 37.355 25.7867 37.1604 29.9071 37.1604H42.8176C48.2199 37.1604 52.6035 37.3664 55.9685 37.7784C59.3563 38.1905 61.9545 38.9802 63.7629 40.1477C65.5941 41.3151 66.8531 43.0205 67.5399 45.2638C68.2266 47.4842 68.57 50.4028 68.57 54.0196H61.9774C61.9774 51.2956 61.737 49.1782 61.2563 47.6674C60.7756 46.1337 59.8714 45.0349 58.5437 44.371C57.216 43.6843 55.2817 43.2608 52.7408 43.1006C50.2228 42.9404 46.9151 42.8602 42.8176 42.8602H29.9071C26.6337 42.8602 23.8753 42.9633 21.632 43.1693C19.3887 43.3524 17.5574 43.7988 16.1381 44.5084C14.7418 45.1951 13.6659 46.2939 12.9105 47.8047C12.178 49.3155 11.6744 51.3757 11.3997 53.9853C11.125 56.5948 10.9877 59.914 10.9877 63.9428V65.3163C10.9877 69.2078 11.125 72.4354 11.3997 74.9992C11.6744 77.563 12.178 79.6117 12.9105 81.1454C13.6659 82.6791 14.7418 83.8237 16.1381 84.5791C17.5574 85.3345 19.3887 85.8266 21.632 86.0555C23.8753 86.2845 26.6337 86.3989 29.9071 86.3989H45.1181C48.8952 86.3989 51.9397 86.2501 54.2517 85.9525C56.5636 85.6321 58.3148 84.9682 59.5051 83.961C60.7184 82.9309 61.531 81.3743 61.943 79.2913C62.3551 77.1853 62.5611 74.3468 62.5611 70.7758V68.75H37.3238V63.2561H69.1537V70.7758C69.1537 75.2396 68.776 78.8678 68.0206 81.6605C67.2652 84.4532 65.9833 86.6164 64.1749 88.1501C62.3894 89.6609 59.9401 90.691 56.8269 91.2404C53.7366 91.8126 49.8337 92.0988 45.1181 92.0988H29.9071C24.7566 92.0988 20.5218 91.744 17.2026 91.0343C13.8834 90.3476 11.2853 89.0657 9.4082 87.1886C7.55403 85.3116 6.24924 82.6105 5.49384 79.0852C4.76133 75.56 4.39507 70.9704 4.39507 65.3163ZM81.3775 91V38.2592H133.157V43.753H87.9701V61.3333H131.268V66.8271H87.9701V85.5062H134.118V91H81.3775ZM165.914 91V43.753H139.543V38.2592H198.877V43.753H172.507V91H165.914ZM228.681 91V38.2592H235.274V91H228.681ZM248.459 91V38.2592H255.326L308.307 82.8623H308.376V38.2592H314.969V91H308.101L255.12 46.0192H255.051V91H248.459ZM371.177 91V43.753H344.807V38.2592H404.14V43.753H377.77V91H371.177ZM437.275 92.0988C432.125 92.0988 427.89 91.744 424.571 91.0343C421.251 90.3476 418.653 89.0657 416.776 87.1886C414.922 85.3116 413.617 82.6105 412.862 79.0852C412.129 75.56 411.763 70.9704 411.763 65.3163V63.9428C411.763 59.2731 411.992 55.3587 412.45 52.1998C412.908 49.0179 413.697 46.4312 414.819 44.4397C415.941 42.4482 417.463 40.926 419.386 39.873C421.332 38.82 423.769 38.1104 426.7 37.7441C429.63 37.355 433.155 37.1604 437.275 37.1604H451.113C455.233 37.1604 458.758 37.355 461.688 37.7441C464.618 38.1104 467.045 38.82 468.968 39.873C470.913 40.926 472.447 42.4482 473.569 44.4397C474.691 46.4312 475.48 49.0179 475.938 52.1998C476.396 55.3587 476.625 59.2731 476.625 63.9428V65.3163C476.625 70.9704 476.247 75.56 475.492 79.0852C474.759 82.6105 473.454 85.3116 471.577 87.1886C469.723 89.0657 467.136 90.3476 463.817 91.0343C460.498 91.744 456.263 92.0988 451.113 92.0988H437.275ZM437.275 86.3989H451.113C454.386 86.3989 457.145 86.2845 459.388 86.0555C461.631 85.8266 463.451 85.3345 464.847 84.5791C466.267 83.8237 467.343 82.6791 468.075 81.1454C468.83 79.6117 469.345 77.563 469.62 74.9992C469.895 72.4354 470.032 69.2078 470.032 65.3163V63.9428C470.032 59.914 469.895 56.5948 469.62 53.9853C469.345 51.3757 468.83 49.3155 468.075 47.8047C467.343 46.2939 466.267 45.1951 464.847 44.5084C463.451 43.7988 461.631 43.3524 459.388 43.1693C457.145 42.9633 454.386 42.8602 451.113 42.8602H437.275C434.002 42.8602 431.243 42.9633 429 43.1693C426.757 43.3524 424.925 43.7988 423.506 44.5084C422.11 45.1951 421.034 46.2939 420.279 47.8047C419.546 49.3155 419.043 51.3757 418.768 53.9853C418.493 56.5948 418.356 59.914 418.356 63.9428V65.3163C418.356 69.2078 418.493 72.4354 418.768 74.9992C419.043 77.563 419.546 79.6117 420.279 81.1454C421.034 82.6791 422.11 83.8237 423.506 84.5791C424.925 85.3345 426.757 85.8266 429 86.0555C431.243 86.2845 434.002 86.3989 437.275 86.3989ZM511.236 92.0988C506.085 92.0988 501.851 91.744 498.531 91.0343C495.212 90.3476 492.614 89.0657 490.737 87.1886C488.883 85.3116 487.578 82.6105 486.823 79.0852C486.09 75.56 485.724 70.9704 485.724 65.3163V38.2592H492.317V65.3163C492.317 69.2078 492.454 72.4354 492.729 74.9992C493.003 77.563 493.518 79.6117 494.274 81.1454C495.029 82.6791 496.105 83.8237 497.501 84.5791C498.921 85.3345 500.752 85.8266 502.995 86.0555C505.239 86.2845 507.985 86.3989 511.236 86.3989H523.666C526.939 86.3989 529.686 86.2845 531.907 86.0555C534.15 85.8266 535.97 85.3345 537.366 84.5791C538.785 83.8237 539.873 82.6791 540.628 81.1454C541.383 79.6117 541.898 77.563 542.173 74.9992C542.448 72.4354 542.585 69.2078 542.585 65.3163V38.2592H549.178V65.3163C549.178 70.9704 548.8 75.56 548.045 79.0852C547.312 82.6105 546.007 85.3116 544.13 87.1886C542.276 89.0657 539.689 90.3476 536.37 91.0343C533.051 91.744 528.816 92.0988 523.666 92.0988H511.236ZM558.243 65.3163V63.9428C558.243 59.2731 558.472 55.3587 558.929 52.1998C559.387 49.0179 560.177 46.4312 561.299 44.4397C562.42 42.4482 563.942 40.926 565.865 39.873C567.811 38.82 570.249 38.1104 573.179 37.7441C576.109 37.355 579.634 37.1604 583.755 37.1604H597.592C602.308 37.1604 606.279 37.3893 609.507 37.8471C612.758 38.282 615.367 39.1633 617.336 40.491C619.327 41.7958 620.769 43.7301 621.662 46.2939C622.555 48.8348 623.001 52.2112 623.001 56.4232H616.409C616.409 53.104 616.111 50.5287 615.516 48.6974C614.921 46.8433 613.913 45.5042 612.494 44.6801C611.098 43.856 609.187 43.3524 606.76 43.1693C604.334 42.9633 601.278 42.8602 597.592 42.8602H583.755C580.481 42.8602 577.723 42.9633 575.48 43.1693C573.236 43.3524 571.405 43.7988 569.986 44.5084C568.589 45.1951 567.513 46.2939 566.758 47.8047C566.026 49.3155 565.522 51.3757 565.247 53.9853C564.973 56.5948 564.835 59.914 564.835 63.9428V65.3163C564.835 69.2078 564.973 72.4354 565.247 74.9992C565.522 77.563 566.026 79.6117 566.758 81.1454C567.513 82.6791 568.589 83.8237 569.986 84.5791C571.405 85.3345 573.236 85.8266 575.48 86.0555C577.723 86.2845 580.481 86.3989 583.755 86.3989H597.592C601.278 86.3989 604.334 86.3188 606.76 86.1586C609.187 85.9983 611.098 85.5291 612.494 84.7508C613.913 83.9725 614.921 82.6791 615.516 80.8707C616.111 79.0395 616.409 76.4757 616.409 73.1794H623.001C623.001 77.3913 622.555 80.7563 621.662 83.2743C620.769 85.7923 619.327 87.6923 617.336 88.9741C615.367 90.2332 612.758 91.0687 609.507 91.4807C606.279 91.8927 602.308 92.0988 597.592 92.0988H583.755C578.604 92.0988 574.369 91.744 571.05 91.0343C567.731 90.3476 565.133 89.0657 563.256 87.1886C561.402 85.3116 560.097 82.6105 559.341 79.0852C558.609 75.56 558.243 70.9704 558.243 65.3163ZM634.264 91V38.2592H640.856V61.3333H689.202V38.2592H695.795V91H689.202V66.8271H640.856V91H634.264Z"/>
</mask>
<path d="M5.0818 52.1998L6.16921 52.3574L6.16937 52.3563L5.0818 52.1998ZM12.0178 39.873L11.4948 38.9066L11.49 38.9092L12.0178 39.873ZM19.3314 37.7441L19.4677 38.8344L19.4761 38.8333L19.3314 37.7441ZM55.9685 37.7784L55.8349 38.8691L55.8358 38.8692L55.9685 37.7784ZM63.7629 40.1477L63.1669 41.0708L63.1722 41.0742L63.7629 40.1477ZM67.5399 45.2638L66.4892 45.5854L66.4902 45.5884L67.5399 45.2638ZM68.57 54.0196V55.1184H69.6687V54.0196H68.57ZM61.9774 54.0196H60.8786V55.1184H61.9774V54.0196ZM61.2563 47.6674L60.2078 47.996L60.2093 48.0005L61.2563 47.6674ZM58.5437 44.371L58.0389 45.347L58.0456 45.3505L58.0523 45.3538L58.5437 44.371ZM52.7408 43.1006L52.6711 44.1971L52.6717 44.1972L52.7408 43.1006ZM21.632 43.1693L21.7214 44.2645L21.7325 44.2634L21.632 43.1693ZM16.1381 44.5084L16.6231 45.4944L16.6295 45.4912L16.1381 44.5084ZM12.9105 47.8047L11.9277 47.3133L11.9218 47.3253L12.9105 47.8047ZM12.9105 81.1454L11.919 81.619L11.9248 81.6309L12.9105 81.1454ZM16.1381 84.5791L15.6153 85.5455L15.6219 85.549L16.1381 84.5791ZM54.2517 85.9525L54.3919 87.0424L54.4025 87.0409L54.2517 85.9525ZM59.5051 83.961L60.2149 84.7998L60.2163 84.7986L59.5051 83.961ZM61.943 79.2913L63.0209 79.5045L63.0213 79.5022L61.943 79.2913ZM62.5611 68.75H63.6599V67.6512H62.5611V68.75ZM37.3238 68.75H36.225V69.8487H37.3238V68.75ZM37.3238 63.2561V62.1573H36.225V63.2561H37.3238ZM69.1537 63.2561H70.2525V62.1573H69.1537V63.2561ZM64.1749 88.1501L64.8846 88.9889L64.8856 88.9881L64.1749 88.1501ZM56.8269 91.2404L56.6359 90.1583L56.6268 90.16L56.8269 91.2404ZM17.2026 91.0343L17.4323 89.9598L17.4252 89.9584L17.2026 91.0343ZM9.4082 87.1886L8.62649 87.9608L8.63125 87.9656L9.4082 87.1886ZM5.49384 79.0852L4.41803 79.3088L4.41946 79.3155L5.49384 79.0852ZM5.49384 65.3163V63.9428H3.2963V65.3163H5.49384ZM5.49384 63.9428C5.49384 59.304 5.72154 55.4463 6.16921 52.3574L3.99439 52.0422C3.52642 55.2712 3.2963 59.2421 3.2963 63.9428H5.49384ZM6.16937 52.3563C6.6151 49.2584 7.37458 46.8145 8.40838 44.9789L6.49365 43.9005C5.28414 46.048 4.46414 48.7775 3.99423 52.0433L6.16937 52.3563ZM8.40838 44.9789C9.43381 43.1583 10.8106 41.7868 12.5455 40.8367L11.49 38.9092C9.37924 40.0651 7.71154 41.7381 6.49365 43.9005L8.40838 44.9789ZM12.5407 40.8393C14.3336 39.869 16.6304 39.189 19.4677 38.8344L19.1952 36.6538C16.1723 37.0317 13.5934 37.7709 11.4948 38.9066L12.5407 40.8393ZM19.4761 38.8333C22.3437 38.4525 25.8178 38.2592 29.9071 38.2592V36.0616C25.7556 36.0616 22.1793 36.2575 19.1868 36.6549L19.4761 38.8333ZM29.9071 38.2592H42.8176V36.0616H29.9071V38.2592ZM42.8176 38.2592C48.1981 38.2592 52.5323 38.4647 55.8349 38.8691L56.102 36.6878C52.6747 36.2682 48.2417 36.0616 42.8176 36.0616V38.2592ZM55.8358 38.8692C59.145 39.2716 61.5566 40.0312 63.1669 41.0708L64.3588 39.2245C62.3524 37.9293 59.5677 37.1093 56.1011 36.6877L55.8358 38.8692ZM63.1722 41.0742C64.7647 42.0894 65.8724 43.5704 66.4892 45.5854L68.5905 44.9422C67.8339 42.4706 66.4235 40.5408 64.3535 39.2211L63.1722 41.0742ZM66.4902 45.5884C67.1316 47.6623 67.4712 50.4589 67.4712 54.0196H69.6687C69.6687 50.3467 69.3217 47.3062 68.5896 44.9391L66.4902 45.5884ZM68.57 52.9208H61.9774V55.1184H68.57V52.9208ZM63.0761 54.0196C63.0761 51.2513 62.8343 49.003 62.3033 47.3342L60.2093 48.0005C60.6397 49.3533 60.8786 51.3398 60.8786 54.0196H63.0761ZM62.3048 47.3387C61.743 45.5466 60.6531 44.1973 59.0351 43.3883L58.0523 45.3538C59.0897 45.8725 59.8081 46.7208 60.2078 47.996L62.3048 47.3387ZM59.0485 43.3951C57.5224 42.6057 55.4107 42.168 52.81 42.004L52.6717 44.1972C55.1528 44.3537 56.9097 44.7629 58.0389 45.347L59.0485 43.3951ZM52.8106 42.004C50.2596 41.8417 46.926 41.7615 42.8176 41.7615V43.959C46.9042 43.959 50.186 44.039 52.6711 44.1971L52.8106 42.004ZM42.8176 41.7615H29.9071V43.959H42.8176V41.7615ZM29.9071 41.7615C26.6137 41.7615 23.8194 41.865 21.5315 42.0751L21.7325 44.2634C23.9312 44.0615 26.6537 43.959 29.9071 43.959V41.7615ZM21.5426 42.0741C19.2134 42.2643 17.2324 42.7328 15.6468 43.5256L16.6295 45.4912C17.8824 44.8647 19.564 44.4405 21.7214 44.2644L21.5426 42.0741ZM15.6532 43.5224C14.0226 44.3244 12.7808 45.6071 11.9278 47.3133L13.8933 48.2961C14.551 46.9806 15.461 46.0659 16.6231 45.4944L15.6532 43.5224ZM11.9218 47.3253C11.1116 48.9964 10.5884 51.1972 10.307 53.8702L12.4924 54.1003C12.7605 51.5542 13.2444 49.6346 13.8992 48.2841L11.9218 47.3253ZM10.307 53.8702C10.0267 56.5325 9.88891 59.8936 9.88891 63.9428H12.0864C12.0864 59.9345 12.2233 56.6572 12.4924 54.1003L10.307 53.8702ZM9.88891 63.9428V65.3163H12.0864V63.9428H9.88891ZM9.88891 65.3163C9.88891 69.2294 10.0268 72.4994 10.3072 75.1163L12.4922 74.8821C12.2232 72.3714 12.0864 69.1862 12.0864 65.3163H9.88891ZM10.3072 75.1163C10.589 77.7465 11.1127 79.9308 11.919 81.619L13.902 80.6719C13.2433 79.2927 12.7598 77.3795 12.4922 74.8821L10.3072 75.1163ZM11.9248 81.6309C12.7728 83.3525 14.0029 84.6732 15.6153 85.5455L16.661 83.6127C15.4807 82.9742 14.5591 82.0058 13.8962 80.6599L11.9248 81.6309ZM15.6219 85.549C17.2065 86.3924 19.1884 86.9107 21.5204 87.1486L21.7435 84.9625C19.5889 84.7426 17.9083 84.2766 16.6544 83.6091L15.6219 85.549ZM21.5204 87.1486C23.8132 87.3826 26.6114 87.4977 29.9071 87.4977V85.3001C26.6559 85.3001 23.9374 85.1863 21.7435 84.9625L21.5204 87.1486ZM29.9071 87.4977H45.1181V85.3001H29.9071V87.4977ZM45.1181 87.4977C48.9172 87.4977 52.0139 87.3484 54.3919 87.0423L54.1114 84.8628C51.8654 85.1518 48.8732 85.3001 45.1181 85.3001V87.4977ZM54.4025 87.0409C56.825 86.7051 58.8052 85.9926 60.2149 84.7998L58.7954 83.1222C57.8244 83.9439 56.3023 84.559 54.1008 84.8642L54.4025 87.0409ZM60.2163 84.7986C61.6736 83.5613 62.5768 81.7497 63.0209 79.5045L60.8651 79.078C60.4852 80.9989 59.7631 82.3006 58.794 83.1234L60.2163 84.7986ZM63.0213 79.5022C63.453 77.2962 63.6599 74.3776 63.6599 70.7758H61.4623C61.4623 74.316 61.2572 77.0743 60.8647 79.0803L63.0213 79.5022ZM63.6599 70.7758V68.75H61.4623V70.7758H63.6599ZM62.5611 67.6512H37.3238V69.8487H62.5611V67.6512ZM38.4225 68.75V63.2561H36.225V68.75H38.4225ZM37.3238 64.3549H69.1537V62.1573H37.3238V64.3549ZM68.0549 63.2561V70.7758H70.2525V63.2561H68.0549ZM68.0549 70.7758C68.0549 75.189 67.6803 78.7105 66.9599 81.3736L69.0812 81.9474C69.8717 79.025 70.2525 75.2901 70.2525 70.7758H68.0549ZM66.9599 81.3736C66.2497 83.9993 65.0685 85.9515 63.4642 87.3121L64.8856 88.9881C66.8981 87.2813 68.2807 84.9071 69.0812 81.9474L66.9599 81.3736ZM63.4652 87.3113C61.8713 88.66 59.6225 89.6313 56.6359 90.1583L57.0178 92.3224C60.2576 91.7507 62.9075 90.6618 64.8846 88.9889L63.4652 87.3113ZM56.6268 90.16C53.6264 90.7156 49.7963 91 45.1181 91V93.1975C49.8711 93.1975 53.8468 92.9097 57.027 92.3208L56.6268 90.16ZM45.1181 91H29.9071V93.1975H45.1181V91ZM29.9071 91C24.7985 91 20.6479 90.6473 17.4323 89.9599L16.9729 92.1088C20.3956 92.8406 24.7147 93.1975 29.9071 93.1975V91ZM17.4252 89.9584C14.2583 89.3031 11.8737 88.1002 10.1851 86.4117L8.63125 87.9656C10.6969 90.0312 13.5085 91.3921 16.98 92.1103L17.4252 89.9584ZM10.1899 86.4165C8.52765 84.7337 7.29528 82.248 6.56822 78.855L4.41946 79.3155C5.2032 82.9729 6.5804 85.8895 8.6265 87.9608L10.1899 86.4165ZM6.56963 78.8617C5.85847 75.4393 5.49384 70.9326 5.49384 65.3163H3.2963C3.2963 71.0082 3.66418 75.6808 4.41805 79.3088L6.56963 78.8617ZM81.3775 91H80.2787V92.0988H81.3775V91ZM81.3775 38.2592V37.1604H80.2787V38.2592H81.3775ZM133.157 38.2592H134.256V37.1604H133.157V38.2592ZM133.157 43.753V44.8518H134.256V43.753H133.157ZM87.9701 43.753V42.6542H86.8713V43.753H87.9701ZM87.9701 61.3333H86.8713V62.432H87.9701V61.3333ZM131.268 61.3333H132.367V60.2345H131.268V61.3333ZM131.268 66.8271V67.9259H132.367V66.8271H131.268ZM87.9701 66.8271V65.7283H86.8713V66.8271H87.9701ZM87.9701 85.5062H86.8713V86.6049H87.9701V85.5062ZM134.118 85.5062H135.217V84.4074H134.118V85.5062ZM134.118 91V92.0988H135.217V91H134.118ZM82.4762 91V38.2592H80.2787V91H82.4762ZM81.3775 39.3579H133.157V37.1604H81.3775V39.3579ZM132.058 38.2592V43.753H134.256V38.2592H132.058ZM133.157 42.6542H87.9701V44.8518H133.157V42.6542ZM86.8713 43.753V61.3333H89.0689V43.753H86.8713ZM87.9701 62.432H131.268V60.2345H87.9701V62.432ZM130.17 61.3333V66.8271H132.367V61.3333H130.17ZM131.268 65.7283H87.9701V67.9259H131.268V65.7283ZM86.8713 66.8271V85.5062H89.0689V66.8271H86.8713ZM87.9701 86.6049H134.118V84.4074H87.9701V86.6049ZM133.02 85.5062V91H135.217V85.5062H133.02ZM134.118 89.9012H81.3775V92.0988H134.118V89.9012ZM165.914 91H164.815V92.0988H165.914V91ZM165.914 43.753H167.013V42.6542H165.914V43.753ZM139.543 43.753H138.445V44.8518H139.543V43.753ZM139.543 38.2592V37.1604H138.445V38.2592H139.543ZM198.877 38.2592H199.976V37.1604H198.877V38.2592ZM198.877 43.753V44.8518H199.976V43.753H198.877ZM172.507 43.753V42.6542H171.408V43.753H172.507ZM172.507 91V92.0988H173.605V91H172.507ZM167.013 91V43.753H164.815V91H167.013ZM165.914 42.6542H139.543V44.8518H165.914V42.6542ZM140.642 43.753V38.2592H138.445V43.753H140.642ZM139.543 39.3579H198.877V37.1604H139.543V39.3579ZM197.778 38.2592V43.753H199.976V38.2592H197.778ZM198.877 42.6542H172.507V44.8518H198.877V42.6542ZM171.408 43.753V91H173.605V43.753H171.408ZM172.507 89.9012H165.914V92.0988H172.507V89.9012ZM228.681 91H227.582V92.0988H228.681V91ZM228.681 38.2592V37.1604H227.582V38.2592H228.681ZM235.274 38.2592H236.372V37.1604H235.274V38.2592ZM235.274 91V92.0988H236.372V91H235.274ZM229.78 91V38.2592H227.582V91H229.78ZM228.681 39.3579H235.274V37.1604H228.681V39.3579ZM234.175 38.2592V91H236.372V38.2592H234.175ZM235.274 89.9012H228.681V92.0988H235.274V89.9012ZM248.459 91H247.36V92.0988H248.459V91ZM248.459 38.2592V37.1604H247.36V38.2592H248.459ZM255.326 38.2592L256.034 37.4186L255.727 37.1604H255.326V38.2592ZM308.307 82.8623L307.6 83.7028L307.906 83.961H308.307V82.8623ZM308.376 82.8623V83.961H309.475V82.8623H308.376ZM308.376 38.2592V37.1604H307.277V38.2592H308.376ZM314.969 38.2592H316.067V37.1604H314.969V38.2592ZM314.969 91V92.0988H316.067V91H314.969ZM308.101 91L307.39 91.8376L307.698 92.0988H308.101V91ZM255.12 46.0192L255.831 45.1816L255.524 44.9204H255.12V46.0192ZM255.051 46.0192V44.9204H253.953V46.0192H255.051ZM255.051 91V92.0988H256.15V91H255.051ZM249.558 91V38.2592H247.36V91H249.558ZM248.459 39.3579H255.326V37.1604H248.459V39.3579ZM254.618 39.0997L307.6 83.7028L309.015 82.0217L256.034 37.4186L254.618 39.0997ZM308.307 83.961H308.376V81.7635H308.307V83.961ZM309.475 82.8623V38.2592H307.277V82.8623H309.475ZM308.376 39.3579H314.969V37.1604H308.376V39.3579ZM313.87 38.2592V91H316.067V38.2592H313.87ZM314.969 89.9012H308.101V92.0988H314.969V89.9012ZM308.812 90.1624L255.831 45.1816L254.409 46.8568L307.39 91.8376L308.812 90.1624ZM255.12 44.9204H255.051V47.118H255.12V44.9204ZM253.953 46.0192V91H256.15V46.0192H253.953ZM255.051 89.9012H248.459V92.0988H255.051V89.9012ZM371.177 91H370.079V92.0988H371.177V91ZM371.177 43.753H372.276V42.6542H371.177V43.753ZM344.807 43.753H343.708V44.8518H344.807V43.753ZM344.807 38.2592V37.1604H343.708V38.2592H344.807ZM404.14 38.2592H405.239V37.1604H404.14V38.2592ZM404.14 43.753V44.8518H405.239V43.753H404.14ZM377.77 43.753V42.6542H376.671V43.753H377.77ZM377.77 91V92.0988H378.869V91H377.77ZM372.276 91V43.753H370.079V91H372.276ZM371.177 42.6542H344.807V44.8518H371.177V42.6542ZM345.906 43.753V38.2592H343.708V43.753H345.906ZM344.807 39.3579H404.14V37.1604H344.807V39.3579ZM403.042 38.2592V43.753H405.239V38.2592H403.042ZM404.14 42.6542H377.77V44.8518H404.14V42.6542ZM376.671 43.753V91H378.869V43.753H376.671ZM377.77 89.9012H371.177V92.0988H377.77V89.9012ZM424.571 91.0343L424.8 89.9598L424.793 89.9584L424.571 91.0343ZM416.776 87.1886L415.995 87.9608L415.999 87.9656L416.776 87.1886ZM412.862 79.0852L411.786 79.3088L411.788 79.3155L412.862 79.0852ZM412.45 52.1998L413.537 52.3574L413.537 52.3563L412.45 52.1998ZM419.386 39.873L418.863 38.9066L418.858 38.9092L419.386 39.873ZM426.7 37.7441L426.836 38.8344L426.844 38.8333L426.7 37.7441ZM461.688 37.7441L461.544 38.8333L461.552 38.8344L461.688 37.7441ZM468.968 39.873L468.44 40.8367L468.445 40.8393L468.968 39.873ZM475.938 52.1998L474.851 52.3563L474.851 52.3574L475.938 52.1998ZM475.492 79.0852L474.417 78.855L474.416 78.8617L475.492 79.0852ZM471.577 87.1886L470.8 86.4117L470.796 86.4165L471.577 87.1886ZM463.817 91.0343L463.595 89.9583L463.588 89.9599L463.817 91.0343ZM464.847 84.5791L464.331 83.6091L464.325 83.6127L464.847 84.5791ZM468.075 81.1454L467.089 80.6599L467.084 80.6719L468.075 81.1454ZM468.075 47.8047L467.086 48.2841L467.092 48.2961L468.075 47.8047ZM464.847 44.5084L464.35 45.4879L464.359 45.4928L464.369 45.4975L464.847 44.5084ZM459.388 43.1693L459.287 44.2635L459.298 44.2644L459.388 43.1693ZM429 43.1693L429.089 44.2645L429.101 44.2634L429 43.1693ZM423.506 44.5084L423.991 45.4944L423.998 45.4912L423.506 44.5084ZM420.279 47.8047L419.296 47.3133L419.29 47.3253L420.279 47.8047ZM420.279 81.1454L419.287 81.619L419.293 81.6309L420.279 81.1454ZM423.506 84.5791L422.983 85.5455L422.99 85.549L423.506 84.5791ZM437.275 91C432.167 91 428.016 90.6473 424.8 89.9599L424.341 92.1088C427.764 92.8406 432.083 93.1975 437.275 93.1975V91ZM424.793 89.9584C421.626 89.3031 419.242 88.1002 417.553 86.4117L415.999 87.9656C418.065 90.0312 420.877 91.3921 424.348 92.1103L424.793 89.9584ZM417.558 86.4165C415.896 84.7337 414.663 82.248 413.936 78.855L411.788 79.3155C412.571 82.9729 413.949 85.8895 415.995 87.9608L417.558 86.4165ZM413.938 78.8617C413.227 75.4393 412.862 70.9326 412.862 65.3163H410.664C410.664 71.0082 411.032 75.6808 411.786 79.3088L413.938 78.8617ZM412.862 65.3163V63.9428H410.664V65.3163H412.862ZM412.862 63.9428C412.862 59.304 413.09 55.4463 413.537 52.3574L411.362 52.0422C410.895 55.2712 410.664 59.2421 410.664 63.9428H412.862ZM413.537 52.3563C413.983 49.2584 414.743 46.8145 415.776 44.9789L413.862 43.9005C412.652 46.048 411.832 48.7775 411.362 52.0433L413.537 52.3563ZM415.776 44.9789C416.802 43.1583 418.179 41.7868 419.914 40.8367L418.858 38.9092C416.747 40.0651 415.08 41.7381 413.862 43.9005L415.776 44.9789ZM419.909 40.8393C421.702 39.869 423.999 39.189 426.836 38.8344L426.563 36.6538C423.54 37.0317 420.962 37.7709 418.863 38.9066L419.909 40.8393ZM426.844 38.8333C429.712 38.4525 433.186 38.2592 437.275 38.2592V36.0616C433.124 36.0616 429.547 36.2575 426.555 36.6549L426.844 38.8333ZM437.275 38.2592H451.113V36.0616H437.275V38.2592ZM451.113 38.2592C455.202 38.2592 458.676 38.4525 461.544 38.8333L461.833 36.6549C458.841 36.2575 455.264 36.0616 451.113 36.0616V38.2592ZM461.552 38.8344C464.39 39.1891 466.673 39.8688 468.44 40.8367L469.496 38.9092C467.417 37.7711 464.847 37.0316 461.825 36.6538L461.552 38.8344ZM468.445 40.8393C470.202 41.7903 471.588 43.1616 472.611 44.9789L474.526 43.9005C473.306 41.7348 471.625 40.0616 469.491 38.9066L468.445 40.8393ZM472.611 44.9789C473.645 46.8145 474.405 49.2584 474.851 52.3563L477.026 52.0433C476.556 48.7775 475.736 46.048 474.526 43.9005L472.611 44.9789ZM474.851 52.3574C475.298 55.4463 475.526 59.304 475.526 63.9428H477.724C477.724 59.2421 477.493 55.2712 477.025 52.0422L474.851 52.3574ZM475.526 63.9428V65.3163H477.724V63.9428H475.526ZM475.526 65.3163C475.526 70.9313 475.15 75.4355 474.417 78.855L476.566 79.3155C477.344 75.6846 477.724 71.0094 477.724 65.3163H475.526ZM474.416 78.8617C473.712 82.2499 472.481 84.7312 470.8 86.4117L472.354 87.9656C474.428 85.892 475.807 82.971 476.567 79.3088L474.416 78.8617ZM470.796 86.4165C469.132 88.1009 466.762 89.3031 463.595 89.9584L464.04 92.1103C467.511 91.3921 470.315 90.0305 472.359 87.9608L470.796 86.4165ZM463.588 89.9599C460.372 90.6473 456.221 91 451.113 91V93.1975C456.305 93.1975 460.624 92.8406 464.047 92.1088L463.588 89.9599ZM451.113 91H437.275V93.1975H451.113V91ZM437.275 87.4977H451.113V85.3001H437.275V87.4977ZM451.113 87.4977C454.408 87.4977 457.207 87.3826 459.499 87.1486L459.276 84.9625C457.083 85.1863 454.364 85.3001 451.113 85.3001V87.4977ZM459.499 87.1486C461.831 86.9107 463.805 86.3923 465.37 85.5455L464.325 83.6127C463.097 84.2766 461.432 84.7425 459.276 84.9625L459.499 87.1486ZM465.364 85.549C467.003 84.6767 468.239 83.3518 469.067 81.619L467.084 80.6719C466.446 82.0065 465.531 82.9707 464.331 83.6091L465.364 85.549ZM469.061 81.6309C469.894 79.9386 470.431 77.7497 470.713 75.1163L468.528 74.8821C468.26 77.3763 467.767 79.2849 467.089 80.6599L469.061 81.6309ZM470.713 75.1163C470.993 72.4994 471.131 69.2294 471.131 65.3163H468.933C468.933 69.1862 468.797 72.3714 468.528 74.8821L470.713 75.1163ZM471.131 65.3163V63.9428H468.933V65.3163H471.131ZM471.131 63.9428C471.131 59.8936 470.993 56.5325 470.713 53.8702L468.527 54.1003C468.797 56.6572 468.933 59.9345 468.933 63.9428H471.131ZM470.713 53.8702C470.431 51.1941 469.895 48.9886 469.058 47.3133L467.092 48.2961C467.765 49.6424 468.26 51.5573 468.527 54.1003L470.713 53.8702ZM469.064 47.3253C468.231 45.6076 466.983 44.321 465.326 43.5193L464.369 45.4975C465.551 46.0693 466.454 46.9802 467.086 48.2841L469.064 47.3253ZM465.345 43.5289C463.779 42.7328 461.806 42.2642 459.477 42.0741L459.298 44.2644C461.457 44.4406 463.123 44.8647 464.35 45.4879L465.345 43.5289ZM459.488 42.0751C457.2 41.865 454.406 41.7615 451.113 41.7615V43.959C454.366 43.959 457.089 44.0615 459.287 44.2634L459.488 42.0751ZM451.113 41.7615H437.275V43.959H451.113V41.7615ZM437.275 41.7615C433.982 41.7615 431.188 41.865 428.9 42.0751L429.101 44.2634C431.299 44.0615 434.022 43.959 437.275 43.959V41.7615ZM428.911 42.0741C426.581 42.2643 424.6 42.7328 423.015 43.5256L423.998 45.4912C425.251 44.8647 426.932 44.4405 429.089 44.2644L428.911 42.0741ZM423.021 43.5224C421.391 44.3244 420.149 45.6071 419.296 47.3133L421.261 48.2961C421.919 46.9806 422.829 46.0659 423.991 45.4944L423.021 43.5224ZM419.29 47.3253C418.48 48.9964 417.956 51.1972 417.675 53.8702L419.861 54.1003C420.129 51.5542 420.613 49.6346 421.267 48.2841L419.29 47.3253ZM417.675 53.8702C417.395 56.5325 417.257 59.8936 417.257 63.9428H419.455C419.455 59.9345 419.591 56.6572 419.861 54.1003L417.675 53.8702ZM417.257 63.9428V65.3163H419.455V63.9428H417.257ZM417.257 65.3163C417.257 69.2294 417.395 72.4994 417.675 75.1163L419.86 74.8821C419.591 72.3714 419.455 69.1862 419.455 65.3163H417.257ZM417.675 75.1163C417.957 77.7465 418.481 79.9308 419.287 81.619L421.27 80.6719C420.611 79.2927 420.128 77.3795 419.86 74.8821L417.675 75.1163ZM419.293 81.6309C420.141 83.3525 421.371 84.6732 422.983 85.5455L424.029 83.6127C422.849 82.9742 421.927 82.0058 421.264 80.6599L419.293 81.6309ZM422.99 85.549C424.575 86.3924 426.557 86.9107 428.889 87.1486L429.112 84.9625C426.957 84.7426 425.276 84.2766 424.023 83.6091L422.99 85.549ZM428.889 87.1486C431.181 87.3826 433.98 87.4977 437.275 87.4977V85.3001C434.024 85.3001 431.305 85.1863 429.112 84.9625L428.889 87.1486ZM498.531 91.0343L498.761 89.9598L498.754 89.9584L498.531 91.0343ZM490.737 87.1886L489.955 87.9608L489.96 87.9656L490.737 87.1886ZM486.823 79.0852L485.747 79.3088L485.748 79.3155L486.823 79.0852ZM485.724 38.2592V37.1604H484.625V38.2592H485.724ZM492.317 38.2592H493.415V37.1604H492.317V38.2592ZM497.501 84.5791L496.979 85.5455L496.985 85.549L497.501 84.5791ZM531.907 86.0555L531.795 84.9625L531.794 84.9626L531.907 86.0555ZM537.366 84.5791L536.85 83.6091L536.843 83.6127L537.366 84.5791ZM542.585 38.2592V37.1604H541.486V38.2592H542.585ZM549.178 38.2592H550.277V37.1604H549.178V38.2592ZM548.045 79.0852L546.97 78.855L546.969 78.8617L548.045 79.0852ZM544.13 87.1886L543.353 86.4117L543.349 86.4165L544.13 87.1886ZM536.37 91.0343L536.148 89.9583L536.141 89.9599L536.37 91.0343ZM511.236 91C506.127 91 501.977 90.6473 498.761 89.9599L498.302 92.1088C501.725 92.8406 506.044 93.1975 511.236 93.1975V91ZM498.754 89.9584C495.587 89.3031 493.203 88.1002 491.514 86.4117L489.96 87.9656C492.026 90.0312 494.837 91.3921 498.309 92.1103L498.754 89.9584ZM491.519 86.4165C489.857 84.7337 488.624 82.248 487.897 78.855L485.748 79.3155C486.532 82.9729 487.909 85.8895 489.955 87.9608L491.519 86.4165ZM487.899 78.8617C487.187 75.4393 486.823 70.9326 486.823 65.3163H484.625C484.625 71.0082 484.993 75.6808 485.747 79.3088L487.899 78.8617ZM486.823 65.3163V38.2592H484.625V65.3163H486.823ZM485.724 39.3579H492.317V37.1604H485.724V39.3579ZM491.218 38.2592V65.3163H493.415V38.2592H491.218ZM491.218 65.3163C491.218 69.2294 491.356 72.4994 491.636 75.1163L493.821 74.8821C493.552 72.3714 493.415 69.1862 493.415 65.3163H491.218ZM491.636 75.1163C491.918 77.7497 492.455 79.9386 493.288 81.6309L495.259 80.6599C494.582 79.2849 494.088 77.3763 493.821 74.8821L491.636 75.1163ZM493.288 81.6309C494.136 83.3525 495.366 84.6732 496.979 85.5455L498.024 83.6127C496.844 82.9742 495.922 82.0058 495.259 80.6599L493.288 81.6309ZM496.985 85.549C498.57 86.3924 500.552 86.9107 502.884 87.1486L503.107 84.9625C500.952 84.7426 499.272 84.2766 498.018 83.6091L496.985 85.549ZM502.884 87.1486C505.176 87.3826 507.963 87.4977 511.236 87.4977V85.3001C508.008 85.3001 505.301 85.1863 503.107 84.9625L502.884 87.1486ZM511.236 87.4977H523.666V85.3001H511.236V87.4977ZM523.666 87.4977C526.961 87.4977 529.749 87.3826 532.019 87.1485L531.794 84.9626C529.624 85.1863 526.917 85.3001 523.666 85.3001V87.4977ZM532.018 87.1486C534.35 86.9107 536.324 86.3923 537.889 85.5455L536.843 83.6127C535.616 84.2766 533.95 84.7425 531.795 84.9625L532.018 87.1486ZM537.882 85.549C539.518 84.6783 540.763 83.3574 541.614 81.6309L539.642 80.6599C538.982 82.0008 538.052 82.9691 536.85 83.6091L537.882 85.549ZM541.614 81.6309C542.447 79.9386 542.984 77.7497 543.266 75.1163L541.081 74.8821C540.813 77.3763 540.32 79.2849 539.642 80.6599L541.614 81.6309ZM543.266 75.1163C543.546 72.4994 543.684 69.2294 543.684 65.3163H541.486C541.486 69.1862 541.35 72.3714 541.081 74.8821L543.266 75.1163ZM543.684 65.3163V38.2592H541.486V65.3163H543.684ZM542.585 39.3579H549.178V37.1604H542.585V39.3579ZM548.079 38.2592V65.3163H550.277V38.2592H548.079ZM548.079 65.3163C548.079 70.9313 547.703 75.4355 546.97 78.855L549.119 79.3155C549.897 75.6846 550.277 71.0094 550.277 65.3163H548.079ZM546.969 78.8617C546.265 82.2499 545.034 84.7312 543.353 86.4117L544.907 87.9656C546.981 85.892 548.359 82.971 549.12 79.3088L546.969 78.8617ZM543.349 86.4165C541.685 88.1009 539.315 89.3031 536.148 89.9584L536.593 92.1103C540.064 91.3921 542.868 90.0305 544.912 87.9608L543.349 86.4165ZM536.141 89.9599C532.925 90.6473 528.774 91 523.666 91V93.1975C528.858 93.1975 533.177 92.8406 536.6 92.1088L536.141 89.9599ZM523.666 91H511.236V93.1975H523.666V91ZM558.929 52.1998L560.017 52.3574L560.017 52.3563L558.929 52.1998ZM565.865 39.873L565.342 38.9066L565.338 38.9092L565.865 39.873ZM573.179 37.7441L573.315 38.8344L573.324 38.8333L573.179 37.7441ZM609.507 37.8471L609.353 38.935L609.361 38.9362L609.507 37.8471ZM617.336 40.491L616.721 41.402L616.727 41.4061L616.734 41.4101L617.336 40.491ZM621.662 46.2939L620.624 46.6552L620.625 46.6581L621.662 46.2939ZM623.001 56.4232V57.5219H624.1V56.4232H623.001ZM616.409 56.4232H615.31V57.5219H616.409V56.4232ZM615.516 48.6974L614.47 49.0333L614.471 49.0371L615.516 48.6974ZM612.494 44.6801L611.936 45.6264L611.943 45.6303L612.494 44.6801ZM606.76 43.1693L606.667 44.2641L606.677 44.2649L606.76 43.1693ZM575.48 43.1693L575.569 44.2645L575.58 44.2634L575.48 43.1693ZM569.986 44.5084L570.471 45.4944L570.477 45.4912L569.986 44.5084ZM566.758 47.8047L565.775 47.3133L565.769 47.3253L566.758 47.8047ZM566.758 81.1454L565.766 81.619L565.772 81.6309L566.758 81.1454ZM569.986 84.5791L569.463 85.5455L569.469 85.549L569.986 84.5791ZM612.494 84.7508L611.966 83.7873L611.959 83.791L612.494 84.7508ZM615.516 80.8707L616.56 81.2142L616.561 81.2103L615.516 80.8707ZM616.409 73.1794V72.0806H615.31V73.1794H616.409ZM623.001 73.1794H624.1V72.0806H623.001V73.1794ZM617.336 88.9741L617.928 89.8998L617.93 89.8981L617.336 88.9741ZM609.507 91.4807L609.369 90.3907L609.368 90.3908L609.507 91.4807ZM571.05 91.0343L571.28 89.9598L571.273 89.9584L571.05 91.0343ZM563.256 87.1886L562.474 87.9608L562.479 87.9656L563.256 87.1886ZM559.341 79.0852L558.266 79.3088L558.267 79.3155L559.341 79.0852ZM559.341 65.3163V63.9428H557.144V65.3163H559.341ZM559.341 63.9428C559.341 59.304 559.569 55.4463 560.017 52.3574L557.842 52.0422C557.374 55.2712 557.144 59.2421 557.144 63.9428H559.341ZM560.017 52.3563C560.463 49.2584 561.222 46.8145 562.256 44.9789L560.341 43.9005C559.132 46.048 558.312 48.7775 557.842 52.0433L560.017 52.3563ZM562.256 44.9789C563.281 43.1583 564.658 41.7868 566.393 40.8367L565.338 38.9092C563.227 40.0651 561.559 41.7381 560.341 43.9005L562.256 44.9789ZM566.388 40.8393C568.181 39.869 570.478 39.189 573.315 38.8344L573.043 36.6538C570.02 37.0317 567.441 37.7709 565.342 38.9066L566.388 40.8393ZM573.324 38.8333C576.191 38.4525 579.665 38.2592 583.755 38.2592V36.0616C579.603 36.0616 576.027 36.2575 573.034 36.6549L573.324 38.8333ZM583.755 38.2592H597.592V36.0616H583.755V38.2592ZM597.592 38.2592C602.277 38.2592 606.193 38.4868 609.353 38.935L609.661 36.7592C606.366 36.2918 602.339 36.0616 597.592 36.0616V38.2592ZM609.361 38.9362C612.504 39.3567 614.936 40.198 616.721 41.402L617.95 39.5801C615.798 38.1287 613.011 37.2074 609.653 36.7581L609.361 38.9362ZM616.734 41.4101C618.494 42.5638 619.8 44.2867 620.624 46.6552L622.7 45.9326C621.739 43.1735 620.16 41.0278 617.938 39.5719L616.734 41.4101ZM620.625 46.6581C621.461 49.0352 621.902 52.2734 621.902 56.4232H624.1C624.1 52.149 623.649 48.6344 622.699 45.9297L620.625 46.6581ZM623.001 55.3244H616.409V57.5219H623.001V55.3244ZM617.507 56.4232C617.507 53.0593 617.208 50.3502 616.561 48.3578L614.471 49.0371C615.014 50.7072 615.31 53.1486 615.31 56.4232H617.507ZM616.562 48.3616C615.9 46.2996 614.743 44.7152 613.046 43.7299L611.943 45.6303C613.084 46.2931 613.941 47.3869 614.47 49.0333L616.562 48.3616ZM613.053 43.7338C611.457 42.7921 609.36 42.2636 606.843 42.0736L606.677 44.2649C609.013 44.4412 610.739 44.9199 611.936 45.6263L613.053 43.7338ZM606.853 42.0744C604.384 41.8648 601.295 41.7615 597.592 41.7615V43.959C601.261 43.959 604.283 44.0617 606.667 44.2641L606.853 42.0744ZM597.592 41.7615H583.755V43.959H597.592V41.7615ZM583.755 41.7615C580.461 41.7615 577.667 41.865 575.379 42.0751L575.58 44.2634C577.779 44.0615 580.501 43.959 583.755 43.959V41.7615ZM575.39 42.0741C573.061 42.2643 571.08 42.7328 569.494 43.5256L570.477 45.4912C571.73 44.8647 573.411 44.4405 575.569 44.2644L575.39 42.0741ZM569.501 43.5224C567.87 44.3244 566.628 45.6071 565.775 47.3133L567.741 48.2961C568.399 46.9806 569.309 46.0659 570.471 45.4944L569.501 43.5224ZM565.769 47.3253C564.959 48.9964 564.436 51.1972 564.155 53.8702L566.34 54.1003C566.608 51.5542 567.092 49.6346 567.747 48.2841L565.769 47.3253ZM564.155 53.8702C563.874 56.5325 563.736 59.8936 563.736 63.9428H565.934C565.934 59.9345 566.071 56.6572 566.34 54.1003L564.155 53.8702ZM563.736 63.9428V65.3163H565.934V63.9428H563.736ZM563.736 65.3163C563.736 69.2294 563.874 72.4994 564.155 75.1163L566.34 74.8821C566.071 72.3714 565.934 69.1862 565.934 65.3163H563.736ZM564.155 75.1163C564.437 77.7465 564.96 79.9308 565.767 81.619L567.75 80.6719C567.091 79.2927 566.607 77.3795 566.34 74.8821L564.155 75.1163ZM565.772 81.6309C566.62 83.3525 567.85 84.6732 569.463 85.5455L570.508 83.6127C569.328 82.9742 568.407 82.0058 567.744 80.6599L565.772 81.6309ZM569.469 85.549C571.054 86.3924 573.036 86.9107 575.368 87.1486L575.591 84.9625C573.436 84.7426 571.756 84.2766 570.502 83.6091L569.469 85.549ZM575.368 87.1486C577.661 87.3826 580.459 87.4977 583.755 87.4977V85.3001C580.503 85.3001 577.785 85.1863 575.591 84.9625L575.368 87.1486ZM583.755 87.4977H597.592V85.3001H583.755V87.4977ZM597.592 87.4977C601.291 87.4977 604.373 87.4173 606.832 87.2549L606.688 85.0622C604.294 85.2202 601.264 85.3001 597.592 85.3001V87.4977ZM606.832 87.2549C609.345 87.089 611.436 86.5985 613.029 85.7105L611.959 83.791C610.76 84.4596 609.029 84.9076 606.688 85.0622L606.832 87.2549ZM613.023 85.7142C614.728 84.7788 615.894 83.2374 616.56 81.2142L614.472 80.5272C613.948 82.1208 613.099 83.1661 611.966 83.7873L613.023 85.7142ZM616.561 81.2103C617.208 79.2185 617.507 76.5213 617.507 73.1794H615.31C615.31 76.4301 615.014 78.8604 614.471 80.5311L616.561 81.2103ZM616.409 74.2781H623.001V72.0806H616.409V74.2781ZM621.902 73.1794C621.902 77.3298 621.46 80.5549 620.626 82.9071L622.698 83.6415C623.649 80.9577 624.1 77.4528 624.1 73.1794H621.902ZM620.626 82.9071C619.804 85.2267 618.502 86.9167 616.741 88.0502L617.93 89.8981C620.152 88.4678 621.735 86.3579 622.698 83.6415L620.626 82.9071ZM616.744 88.0485C614.956 89.1918 612.519 89.9914 609.369 90.3907L609.645 92.5708C612.996 92.1459 615.778 91.2745 617.928 89.8998L616.744 88.0485ZM609.368 90.3908C606.202 90.795 602.28 91 597.592 91V93.1975C602.336 93.1975 606.357 92.9905 609.646 92.5706L609.368 90.3908ZM597.592 91H583.755V93.1975H597.592V91ZM583.755 91C578.646 91 574.495 90.6473 571.28 89.9599L570.82 92.1088C574.243 92.8406 578.562 93.1975 583.755 93.1975V91ZM571.273 89.9584C568.106 89.3031 565.721 88.1002 564.033 86.4117L562.479 87.9656C564.544 90.0312 567.356 91.3921 570.827 92.1103L571.273 89.9584ZM564.037 86.4165C562.375 84.7337 561.143 82.248 560.416 78.855L558.267 79.3155C559.051 82.9729 560.428 85.8895 562.474 87.9608L564.037 86.4165ZM560.417 78.8617C559.706 75.4393 559.341 70.9326 559.341 65.3163H557.144C557.144 71.0082 557.512 75.6808 558.266 79.3088L560.417 78.8617ZM634.264 91H633.165V92.0988H634.264V91ZM634.264 38.2592V37.1604H633.165V38.2592H634.264ZM640.856 38.2592H641.955V37.1604H640.856V38.2592ZM640.856 61.3333H639.757V62.432H640.856V61.3333ZM689.202 61.3333V62.432H690.301V61.3333H689.202ZM689.202 38.2592V37.1604H688.103V38.2592H689.202ZM695.795 38.2592H696.893V37.1604H695.795V38.2592ZM695.795 91V92.0988H696.893V91H695.795ZM689.202 91H688.103V92.0988H689.202V91ZM689.202 66.8271H690.301V65.7283H689.202V66.8271ZM640.856 66.8271V65.7283H639.757V66.8271H640.856ZM640.856 91V92.0988H641.955V91H640.856ZM635.362 91V38.2592H633.165V91H635.362ZM634.264 39.3579H640.856V37.1604H634.264V39.3579ZM639.757 38.2592V61.3333H641.955V38.2592H639.757ZM640.856 62.432H689.202V60.2345H640.856V62.432ZM690.301 61.3333V38.2592H688.103V61.3333H690.301ZM689.202 39.3579H695.795V37.1604H689.202V39.3579ZM694.696 38.2592V91H696.893V38.2592H694.696ZM695.795 89.9012H689.202V92.0988H695.795V89.9012ZM690.301 91V66.8271H688.103V91H690.301ZM689.202 65.7283H640.856V67.9259H689.202V65.7283ZM639.757 66.8271V91H641.955V66.8271H639.757ZM640.856 89.9012H634.264V92.0988H640.856V89.9012Z" fill="white" fill-opacity="0.15" mask="url(#path-1-outside-1_2020_28)"/>
<mask id="path-3-outside-2_2020_28" maskUnits="userSpaceOnUse" x="26" y="24" width="632" height="52" fill="black">
<rect fill="white" x="26" y="24" width="632" height="52"/>
<path d="M27 50.625V49.375C27 45.125 27.2083 41.5625 27.625 38.6875C28.0417 35.7917 28.7604 33.4375 29.7812 31.625C30.8021 29.8125 32.1875 28.4271 33.9375 27.4688C35.7083 26.5104 37.9271 25.8646 40.5938 25.5312C43.2604 25.1771 46.4688 25 50.2188 25H61.9688C66.8854 25 70.875 25.1875 73.9375 25.5625C77.0208 25.9375 79.3854 26.6562 81.0312 27.7188C82.6979 28.7812 83.8438 30.3333 84.4688 32.375C85.0938 34.3958 85.4062 37.0521 85.4062 40.3438H79.4062C79.4062 37.8646 79.1875 35.9375 78.75 34.5625C78.3125 33.1667 77.4896 32.1667 76.2812 31.5625C75.0729 30.9375 73.3125 30.5521 71 30.4062C68.7083 30.2604 65.6979 30.1875 61.9688 30.1875H50.2188C47.2396 30.1875 44.7292 30.2812 42.6875 30.4688C40.6458 30.6354 38.9792 31.0417 37.6875 31.6875C36.4167 32.3125 35.4375 33.3125 34.75 34.6875C34.0833 36.0625 33.625 37.9375 33.375 40.3125C33.125 42.6875 33 45.7083 33 49.375V50.625C33 54.1667 33.125 57.1042 33.375 59.4375C33.625 61.7708 34.0833 63.6354 34.75 65.0312C35.4375 66.4271 36.4167 67.4688 37.6875 68.1562C38.9792 68.8438 40.6458 69.2917 42.6875 69.5C44.7292 69.7083 47.2396 69.8125 50.2188 69.8125H64.0625C67.5 69.8125 70.2708 69.6771 72.375 69.4062C74.4792 69.1146 76.0729 68.5104 77.1562 67.5938C78.2604 66.6562 79 65.2396 79.375 63.3438C79.75 61.4271 79.9375 58.8438 79.9375 55.5938V53.75H56.9688V48.75H85.9375V55.5938C85.9375 59.6562 85.5938 62.9583 84.9062 65.5C84.2188 68.0417 83.0521 70.0104 81.4062 71.4062C79.7812 72.7812 77.5521 73.7188 74.7188 74.2188C71.9062 74.7396 68.3542 75 64.0625 75H50.2188C45.5312 75 41.6771 74.6771 38.6562 74.0312C35.6354 73.4062 33.2708 72.2396 31.5625 70.5312C29.875 68.8229 28.6875 66.3646 28 63.1562C27.3333 59.9479 27 55.7708 27 50.625ZM97.0625 74V26H144.188V31H103.062V47H142.469V52H103.062V69H145.062V74H97.0625ZM174 74V31H150V26H204V31H180V74H174ZM231.125 74V26H237.125V74H231.125ZM249.125 74V26H255.375L303.594 66.5938H303.656V26H309.656V74H303.406L255.188 33.0625H255.125V74H249.125ZM360.812 74V31H336.812V26H390.812V31H366.812V74H360.812ZM420.969 75C416.281 75 412.427 74.6771 409.406 74.0312C406.385 73.4062 404.021 72.2396 402.312 70.5312C400.625 68.8229 399.438 66.3646 398.75 63.1562C398.083 59.9479 397.75 55.7708 397.75 50.625V49.375C397.75 45.125 397.958 41.5625 398.375 38.6875C398.792 35.7917 399.51 33.4375 400.531 31.625C401.552 29.8125 402.938 28.4271 404.688 27.4688C406.458 26.5104 408.677 25.8646 411.344 25.5312C414.01 25.1771 417.219 25 420.969 25H433.562C437.312 25 440.521 25.1771 443.188 25.5312C445.854 25.8646 448.062 26.5104 449.812 27.4688C451.583 28.4271 452.979 29.8125 454 31.625C455.021 33.4375 455.74 35.7917 456.156 38.6875C456.573 41.5625 456.781 45.125 456.781 49.375V50.625C456.781 55.7708 456.438 59.9479 455.75 63.1562C455.083 66.3646 453.896 68.8229 452.188 70.5312C450.5 72.2396 448.146 73.4062 445.125 74.0312C442.104 74.6771 438.25 75 433.562 75H420.969ZM420.969 69.8125H433.562C436.542 69.8125 439.052 69.7083 441.094 69.5C443.135 69.2917 444.792 68.8438 446.062 68.1562C447.354 67.4688 448.333 66.4271 449 65.0312C449.688 63.6354 450.156 61.7708 450.406 59.4375C450.656 57.1042 450.781 54.1667 450.781 50.625V49.375C450.781 45.7083 450.656 42.6875 450.406 40.3125C450.156 37.9375 449.688 36.0625 449 34.6875C448.333 33.3125 447.354 32.3125 446.062 31.6875C444.792 31.0417 443.135 30.6354 441.094 30.4688C439.052 30.2812 436.542 30.1875 433.562 30.1875H420.969C417.99 30.1875 415.479 30.2812 413.438 30.4688C411.396 30.6354 409.729 31.0417 408.438 31.6875C407.167 32.3125 406.188 33.3125 405.5 34.6875C404.833 36.0625 404.375 37.9375 404.125 40.3125C403.875 42.6875 403.75 45.7083 403.75 49.375V50.625C403.75 54.1667 403.875 57.1042 404.125 59.4375C404.375 61.7708 404.833 63.6354 405.5 65.0312C406.188 66.4271 407.167 67.4688 408.438 68.1562C409.729 68.8438 411.396 69.2917 413.438 69.5C415.479 69.7083 417.99 69.8125 420.969 69.8125ZM488.281 75C483.594 75 479.74 74.6771 476.719 74.0312C473.698 73.4062 471.333 72.2396 469.625 70.5312C467.938 68.8229 466.75 66.3646 466.062 63.1562C465.396 59.9479 465.062 55.7708 465.062 50.625V26H471.062V50.625C471.062 54.1667 471.188 57.1042 471.438 59.4375C471.688 61.7708 472.156 63.6354 472.844 65.0312C473.531 66.4271 474.51 67.4688 475.781 68.1562C477.073 68.8438 478.74 69.2917 480.781 69.5C482.823 69.7083 485.323 69.8125 488.281 69.8125H499.594C502.573 69.8125 505.073 69.7083 507.094 69.5C509.135 69.2917 510.792 68.8438 512.062 68.1562C513.354 67.4688 514.344 66.4271 515.031 65.0312C515.719 63.6354 516.188 61.7708 516.438 59.4375C516.688 57.1042 516.812 54.1667 516.812 50.625V26H522.812V50.625C522.812 55.7708 522.469 59.9479 521.781 63.1562C521.115 66.3646 519.927 68.8229 518.219 70.5312C516.531 72.2396 514.177 73.4062 511.156 74.0312C508.135 74.6771 504.281 75 499.594 75H488.281ZM531.062 50.625V49.375C531.062 45.125 531.271 41.5625 531.688 38.6875C532.104 35.7917 532.823 33.4375 533.844 31.625C534.865 29.8125 536.25 28.4271 538 27.4688C539.771 26.5104 541.99 25.8646 544.656 25.5312C547.323 25.1771 550.531 25 554.281 25H566.875C571.167 25 574.781 25.2083 577.719 25.625C580.677 26.0208 583.052 26.8229 584.844 28.0312C586.656 29.2188 587.969 30.9792 588.781 33.3125C589.594 35.625 590 38.6979 590 42.5312H584C584 39.5104 583.729 37.1667 583.188 35.5C582.646 33.8125 581.729 32.5938 580.438 31.8438C579.167 31.0938 577.427 30.6354 575.219 30.4688C573.01 30.2812 570.229 30.1875 566.875 30.1875H554.281C551.302 30.1875 548.792 30.2812 546.75 30.4688C544.708 30.6354 543.042 31.0417 541.75 31.6875C540.479 32.3125 539.5 33.3125 538.812 34.6875C538.146 36.0625 537.688 37.9375 537.438 40.3125C537.188 42.6875 537.062 45.7083 537.062 49.375V50.625C537.062 54.1667 537.188 57.1042 537.438 59.4375C537.688 61.7708 538.146 63.6354 538.812 65.0312C539.5 66.4271 540.479 67.4688 541.75 68.1562C543.042 68.8438 544.708 69.2917 546.75 69.5C548.792 69.7083 551.302 69.8125 554.281 69.8125H566.875C570.229 69.8125 573.01 69.7396 575.219 69.5938C577.427 69.4479 579.167 69.0208 580.438 68.3125C581.729 67.6042 582.646 66.4271 583.188 64.7812C583.729 63.1146 584 60.7812 584 57.7812H590C590 61.6146 589.594 64.6771 588.781 66.9688C587.969 69.2604 586.656 70.9896 584.844 72.1562C583.052 73.3021 580.677 74.0625 577.719 74.4375C574.781 74.8125 571.167 75 566.875 75H554.281C549.594 75 545.74 74.6771 542.719 74.0312C539.698 73.4062 537.333 72.2396 535.625 70.5312C533.938 68.8229 532.75 66.3646 532.062 63.1562C531.396 59.9479 531.062 55.7708 531.062 50.625ZM600.25 74V26H606.25V47H650.25V26H656.25V74H650.25V52H606.25V74H600.25Z"/>
</mask>
<path d="M27 50.625V49.375C27 45.125 27.2083 41.5625 27.625 38.6875C28.0417 35.7917 28.7604 33.4375 29.7812 31.625C30.8021 29.8125 32.1875 28.4271 33.9375 27.4688C35.7083 26.5104 37.9271 25.8646 40.5938 25.5312C43.2604 25.1771 46.4688 25 50.2188 25H61.9688C66.8854 25 70.875 25.1875 73.9375 25.5625C77.0208 25.9375 79.3854 26.6562 81.0312 27.7188C82.6979 28.7812 83.8438 30.3333 84.4688 32.375C85.0938 34.3958 85.4062 37.0521 85.4062 40.3438H79.4062C79.4062 37.8646 79.1875 35.9375 78.75 34.5625C78.3125 33.1667 77.4896 32.1667 76.2812 31.5625C75.0729 30.9375 73.3125 30.5521 71 30.4062C68.7083 30.2604 65.6979 30.1875 61.9688 30.1875H50.2188C47.2396 30.1875 44.7292 30.2812 42.6875 30.4688C40.6458 30.6354 38.9792 31.0417 37.6875 31.6875C36.4167 32.3125 35.4375 33.3125 34.75 34.6875C34.0833 36.0625 33.625 37.9375 33.375 40.3125C33.125 42.6875 33 45.7083 33 49.375V50.625C33 54.1667 33.125 57.1042 33.375 59.4375C33.625 61.7708 34.0833 63.6354 34.75 65.0312C35.4375 66.4271 36.4167 67.4688 37.6875 68.1562C38.9792 68.8438 40.6458 69.2917 42.6875 69.5C44.7292 69.7083 47.2396 69.8125 50.2188 69.8125H64.0625C67.5 69.8125 70.2708 69.6771 72.375 69.4062C74.4792 69.1146 76.0729 68.5104 77.1562 67.5938C78.2604 66.6562 79 65.2396 79.375 63.3438C79.75 61.4271 79.9375 58.8438 79.9375 55.5938V53.75H56.9688V48.75H85.9375V55.5938C85.9375 59.6562 85.5938 62.9583 84.9062 65.5C84.2188 68.0417 83.0521 70.0104 81.4062 71.4062C79.7812 72.7812 77.5521 73.7188 74.7188 74.2188C71.9062 74.7396 68.3542 75 64.0625 75H50.2188C45.5312 75 41.6771 74.6771 38.6562 74.0312C35.6354 73.4062 33.2708 72.2396 31.5625 70.5312C29.875 68.8229 28.6875 66.3646 28 63.1562C27.3333 59.9479 27 55.7708 27 50.625ZM97.0625 74V26H144.188V31H103.062V47H142.469V52H103.062V69H145.062V74H97.0625ZM174 74V31H150V26H204V31H180V74H174ZM231.125 74V26H237.125V74H231.125ZM249.125 74V26H255.375L303.594 66.5938H303.656V26H309.656V74H303.406L255.188 33.0625H255.125V74H249.125ZM360.812 74V31H336.812V26H390.812V31H366.812V74H360.812ZM420.969 75C416.281 75 412.427 74.6771 409.406 74.0312C406.385 73.4062 404.021 72.2396 402.312 70.5312C400.625 68.8229 399.438 66.3646 398.75 63.1562C398.083 59.9479 397.75 55.7708 397.75 50.625V49.375C397.75 45.125 397.958 41.5625 398.375 38.6875C398.792 35.7917 399.51 33.4375 400.531 31.625C401.552 29.8125 402.938 28.4271 404.688 27.4688C406.458 26.5104 408.677 25.8646 411.344 25.5312C414.01 25.1771 417.219 25 420.969 25H433.562C437.312 25 440.521 25.1771 443.188 25.5312C445.854 25.8646 448.062 26.5104 449.812 27.4688C451.583 28.4271 452.979 29.8125 454 31.625C455.021 33.4375 455.74 35.7917 456.156 38.6875C456.573 41.5625 456.781 45.125 456.781 49.375V50.625C456.781 55.7708 456.438 59.9479 455.75 63.1562C455.083 66.3646 453.896 68.8229 452.188 70.5312C450.5 72.2396 448.146 73.4062 445.125 74.0312C442.104 74.6771 438.25 75 433.562 75H420.969ZM420.969 69.8125H433.562C436.542 69.8125 439.052 69.7083 441.094 69.5C443.135 69.2917 444.792 68.8438 446.062 68.1562C447.354 67.4688 448.333 66.4271 449 65.0312C449.688 63.6354 450.156 61.7708 450.406 59.4375C450.656 57.1042 450.781 54.1667 450.781 50.625V49.375C450.781 45.7083 450.656 42.6875 450.406 40.3125C450.156 37.9375 449.688 36.0625 449 34.6875C448.333 33.3125 447.354 32.3125 446.062 31.6875C444.792 31.0417 443.135 30.6354 441.094 30.4688C439.052 30.2812 436.542 30.1875 433.562 30.1875H420.969C417.99 30.1875 415.479 30.2812 413.438 30.4688C411.396 30.6354 409.729 31.0417 408.438 31.6875C407.167 32.3125 406.188 33.3125 405.5 34.6875C404.833 36.0625 404.375 37.9375 404.125 40.3125C403.875 42.6875 403.75 45.7083 403.75 49.375V50.625C403.75 54.1667 403.875 57.1042 404.125 59.4375C404.375 61.7708 404.833 63.6354 405.5 65.0312C406.188 66.4271 407.167 67.4688 408.438 68.1562C409.729 68.8438 411.396 69.2917 413.438 69.5C415.479 69.7083 417.99 69.8125 420.969 69.8125ZM488.281 75C483.594 75 479.74 74.6771 476.719 74.0312C473.698 73.4062 471.333 72.2396 469.625 70.5312C467.938 68.8229 466.75 66.3646 466.062 63.1562C465.396 59.9479 465.062 55.7708 465.062 50.625V26H471.062V50.625C471.062 54.1667 471.188 57.1042 471.438 59.4375C471.688 61.7708 472.156 63.6354 472.844 65.0312C473.531 66.4271 474.51 67.4688 475.781 68.1562C477.073 68.8438 478.74 69.2917 480.781 69.5C482.823 69.7083 485.323 69.8125 488.281 69.8125H499.594C502.573 69.8125 505.073 69.7083 507.094 69.5C509.135 69.2917 510.792 68.8438 512.062 68.1562C513.354 67.4688 514.344 66.4271 515.031 65.0312C515.719 63.6354 516.188 61.7708 516.438 59.4375C516.688 57.1042 516.812 54.1667 516.812 50.625V26H522.812V50.625C522.812 55.7708 522.469 59.9479 521.781 63.1562C521.115 66.3646 519.927 68.8229 518.219 70.5312C516.531 72.2396 514.177 73.4062 511.156 74.0312C508.135 74.6771 504.281 75 499.594 75H488.281ZM531.062 50.625V49.375C531.062 45.125 531.271 41.5625 531.688 38.6875C532.104 35.7917 532.823 33.4375 533.844 31.625C534.865 29.8125 536.25 28.4271 538 27.4688C539.771 26.5104 541.99 25.8646 544.656 25.5312C547.323 25.1771 550.531 25 554.281 25H566.875C571.167 25 574.781 25.2083 577.719 25.625C580.677 26.0208 583.052 26.8229 584.844 28.0312C586.656 29.2188 587.969 30.9792 588.781 33.3125C589.594 35.625 590 38.6979 590 42.5312H584C584 39.5104 583.729 37.1667 583.188 35.5C582.646 33.8125 581.729 32.5938 580.438 31.8438C579.167 31.0938 577.427 30.6354 575.219 30.4688C573.01 30.2812 570.229 30.1875 566.875 30.1875H554.281C551.302 30.1875 548.792 30.2812 546.75 30.4688C544.708 30.6354 543.042 31.0417 541.75 31.6875C540.479 32.3125 539.5 33.3125 538.812 34.6875C538.146 36.0625 537.688 37.9375 537.438 40.3125C537.188 42.6875 537.062 45.7083 537.062 49.375V50.625C537.062 54.1667 537.188 57.1042 537.438 59.4375C537.688 61.7708 538.146 63.6354 538.812 65.0312C539.5 66.4271 540.479 67.4688 541.75 68.1562C543.042 68.8438 544.708 69.2917 546.75 69.5C548.792 69.7083 551.302 69.8125 554.281 69.8125H566.875C570.229 69.8125 573.01 69.7396 575.219 69.5938C577.427 69.4479 579.167 69.0208 580.438 68.3125C581.729 67.6042 582.646 66.4271 583.188 64.7812C583.729 63.1146 584 60.7812 584 57.7812H590C590 61.6146 589.594 64.6771 588.781 66.9688C587.969 69.2604 586.656 70.9896 584.844 72.1562C583.052 73.3021 580.677 74.0625 577.719 74.4375C574.781 74.8125 571.167 75 566.875 75H554.281C549.594 75 545.74 74.6771 542.719 74.0312C539.698 73.4062 537.333 72.2396 535.625 70.5312C533.938 68.8229 532.75 66.3646 532.062 63.1562C531.396 59.9479 531.062 55.7708 531.062 50.625ZM600.25 74V26H606.25V47H650.25V26H656.25V74H650.25V52H606.25V74H600.25Z" fill="#D9D9D9"/>
<path d="M27.625 38.6875L28.6147 38.8309L28.6148 38.8299L27.625 38.6875ZM33.9375 27.4688L33.4615 26.5893L33.4572 26.5917L33.9375 27.4688ZM40.5938 25.5312L40.7178 26.5236L40.7254 26.5225L40.5938 25.5312ZM73.9375 25.5625L73.816 26.5551L73.8168 26.5552L73.9375 25.5625ZM81.0312 27.7188L80.4889 28.5589L80.4937 28.562L81.0312 27.7188ZM84.4688 32.375L83.5125 32.6677L83.5134 32.6705L84.4688 32.375ZM85.4062 40.3438V41.3438H86.4062V40.3438H85.4062ZM79.4062 40.3438H78.4062V41.3438H79.4062V40.3438ZM78.75 34.5625L77.7958 34.8616L77.7971 34.8657L78.75 34.5625ZM76.2812 31.5625L75.8218 32.4508L75.834 32.4569L76.2812 31.5625ZM71 30.4062L70.9365 31.4042L70.9371 31.4043L71 30.4062ZM42.6875 30.4688L42.7689 31.4655L42.779 31.4646L42.6875 30.4688ZM37.6875 31.6875L38.1288 32.5849L38.1347 32.5819L37.6875 31.6875ZM34.75 34.6875L33.8555 34.2403L33.8502 34.2512L34.75 34.6875ZM34.75 65.0312L33.8476 65.4623L33.8529 65.4731L34.75 65.0312ZM37.6875 68.1562L37.2117 69.0358L37.2177 69.039L37.6875 68.1562ZM72.375 69.4062L72.5027 70.3981L72.5123 70.3968L72.375 69.4062ZM77.1562 67.5938L77.8022 68.3571L77.8035 68.356L77.1562 67.5938ZM79.375 63.3438L80.356 63.5378L80.3564 63.5358L79.375 63.3438ZM79.9375 53.75H80.9375V52.75H79.9375V53.75ZM56.9688 53.75H55.9688V54.75H56.9688V53.75ZM56.9688 48.75V47.75H55.9688V48.75H56.9688ZM85.9375 48.75H86.9375V47.75H85.9375V48.75ZM84.9062 65.5L83.9409 65.2389L84.9062 65.5ZM81.4062 71.4062L82.0522 72.1696L82.0531 72.1689L81.4062 71.4062ZM74.7188 74.2188L74.545 73.2339L74.5367 73.2355L74.7188 74.2188ZM38.6562 74.0312L38.8653 73.0533L38.8589 73.052L38.6562 74.0312ZM31.5625 70.5312L30.8511 71.234L30.8554 71.2384L31.5625 70.5312ZM28 63.1562L27.0209 63.3597L27.0222 63.3658L28 63.1562ZM28 50.625V49.375H26V50.625H28ZM28 49.375C28 45.1532 28.2072 41.6422 28.6147 38.8309L26.6353 38.5441C26.2094 41.4828 26 45.0968 26 49.375H28ZM28.6148 38.8299C29.0205 36.0105 29.7117 33.7863 30.6526 32.1157L28.9099 31.1343C27.8092 33.0887 27.0629 35.5728 26.6352 38.5451L28.6148 38.8299ZM30.6526 32.1157C31.5858 30.4587 32.8389 29.2105 34.4178 28.3458L33.4572 26.5917C31.5361 27.6437 30.0184 29.1663 28.9099 31.1343L30.6526 32.1157ZM34.4135 28.3482C36.0452 27.4652 38.1355 26.8463 40.7178 26.5235L40.4697 24.539C37.7186 24.8829 35.3715 25.5557 33.4615 26.5893L34.4135 28.3482ZM40.7254 26.5225C43.3352 26.1759 46.497 26 50.2188 26V24C46.4405 24 43.1856 24.1782 40.4621 24.54L40.7254 26.5225ZM50.2188 26H61.9688V24H50.2188V26ZM61.9688 26C66.8656 26 70.8102 26.187 73.816 26.5551L74.059 24.5699C70.9398 24.188 66.9053 24 61.9688 24V26ZM73.8168 26.5552C76.8285 26.9215 79.0233 27.6127 80.4889 28.5589L81.5736 26.8786C79.7476 25.6998 77.2132 24.9535 74.0582 24.5698L73.8168 26.5552ZM80.4937 28.562C81.9431 29.486 82.9511 30.8338 83.5126 32.6677L85.4249 32.0823C84.7364 29.8329 83.4528 28.0765 81.5688 26.8755L80.4937 28.562ZM83.5134 32.6705C84.0971 34.5579 84.4062 37.1031 84.4062 40.3438H86.4062C86.4062 37.001 86.0904 34.2338 85.4241 32.0795L83.5134 32.6705ZM85.4062 39.3438H79.4062V41.3438H85.4062V39.3438ZM80.4062 40.3438C80.4062 37.8243 80.1862 35.7781 79.7029 34.2593L77.7971 34.8657C78.1888 36.0969 78.4062 37.9049 78.4062 40.3438H80.4062ZM79.7042 34.2634C79.193 32.6323 78.201 31.4044 76.7285 30.6681L75.834 32.4569C76.7781 32.929 77.432 33.701 77.7958 34.8616L79.7042 34.2634ZM76.7407 30.6743C75.3517 29.9559 73.4299 29.5575 71.0629 29.4082L70.9371 31.4043C73.1951 31.5467 74.7941 31.9191 75.8218 32.4507L76.7407 30.6743ZM71.0635 29.4083C68.7418 29.2605 65.7078 29.1875 61.9688 29.1875V31.1875C65.688 31.1875 68.6748 31.2603 70.9365 31.4042L71.0635 29.4083ZM61.9688 29.1875H50.2188V31.1875H61.9688V29.1875ZM50.2188 29.1875C47.2214 29.1875 44.6783 29.2817 42.596 29.4729L42.779 31.4646C44.78 31.2808 47.2578 31.1875 50.2188 31.1875V29.1875ZM42.6061 29.4721C40.4863 29.6451 38.6834 30.0715 37.2403 30.7931L38.1347 32.5819C39.275 32.0118 40.8054 31.6257 42.7689 31.4654L42.6061 29.4721ZM37.2462 30.7901C35.7621 31.52 34.632 32.6875 33.8556 34.2403L35.6444 35.1347C36.243 33.9375 37.0713 33.105 38.1288 32.5849L37.2462 30.7901ZM33.8502 34.2512C33.1128 35.7721 32.6366 37.775 32.3805 40.2078L34.3695 40.4172C34.6134 38.1 35.0539 36.3529 35.6498 35.1238L33.8502 34.2512ZM32.3805 40.2078C32.1254 42.6308 32 45.6897 32 49.375H34C34 45.7269 34.1246 42.7442 34.3695 40.4172L32.3805 40.2078ZM32 49.375V50.625H34V49.375H32ZM32 50.625C32 54.1863 32.1255 57.1624 32.3807 59.544L34.3693 59.331C34.1245 57.0459 34 54.147 34 50.625H32ZM32.3807 59.544C32.6372 61.9379 33.1138 63.9258 33.8476 65.4622L35.6524 64.6003C35.0529 63.3451 34.6128 61.6038 34.3693 59.331L32.3807 59.544ZM33.8529 65.4731C34.6246 67.0399 35.7442 68.2419 37.2117 69.0358L38.1633 67.2767C37.0892 66.6956 36.2504 65.8143 35.6471 64.5894L33.8529 65.4731ZM37.2177 69.039C38.6598 69.8066 40.4636 70.2783 42.586 70.4948L42.789 68.5052C40.8281 68.3051 39.2986 67.8809 38.1573 67.2735L37.2177 69.039ZM42.586 70.4948C44.6727 70.7078 47.2193 70.8125 50.2188 70.8125V68.8125C47.2598 68.8125 44.7856 68.7089 42.789 68.5052L42.586 70.4948ZM50.2188 70.8125H64.0625V68.8125H50.2188V70.8125ZM64.0625 70.8125C67.52 70.8125 70.3384 70.6766 72.5027 70.3981L72.2473 68.4144C70.2032 68.6775 67.48 68.8125 64.0625 68.8125V70.8125ZM72.5123 70.3968C74.717 70.0912 76.5193 69.4427 77.8022 68.3571L76.5103 66.8304C75.6266 67.5781 74.2413 68.138 72.2377 68.4157L72.5123 70.3968ZM77.8035 68.356C79.1298 67.2299 79.9518 65.5812 80.356 63.5378L78.394 63.1497C78.0482 64.8979 77.391 66.0826 76.509 66.8315L77.8035 68.356ZM80.3564 63.5358C80.7492 61.528 80.9375 58.8718 80.9375 55.5938H78.9375C78.9375 58.8157 78.7508 61.3261 78.3936 63.1517L80.3564 63.5358ZM80.9375 55.5938V53.75H78.9375V55.5938H80.9375ZM79.9375 52.75H56.9688V54.75H79.9375V52.75ZM57.9688 53.75V48.75H55.9688V53.75H57.9688ZM56.9688 49.75H85.9375V47.75H56.9688V49.75ZM84.9375 48.75V55.5938H86.9375V48.75H84.9375ZM84.9375 55.5938C84.9375 59.6103 84.5965 62.8152 83.9409 65.2389L85.8716 65.7611C86.591 63.1014 86.9375 59.7022 86.9375 55.5938H84.9375ZM83.9409 65.2389C83.2945 67.6286 82.2195 69.4053 80.7594 70.6436L82.0531 72.1689C83.8846 70.6156 85.143 68.4548 85.8716 65.7611L83.9409 65.2389ZM80.7603 70.6429C79.3097 71.8703 77.2631 72.7543 74.545 73.234L74.8925 75.2035C77.8411 74.6832 80.2528 73.6922 82.0522 72.1696L80.7603 70.6429ZM74.5367 73.2355C71.806 73.7411 68.3201 74 64.0625 74V76C68.3882 76 72.0065 75.738 74.9008 75.202L74.5367 73.2355ZM64.0625 74H50.2188V76H64.0625V74ZM50.2188 74C45.5694 74 41.7919 73.679 38.8653 73.0534L38.4472 75.0091C41.5623 75.6751 45.4931 76 50.2188 76V74ZM38.8589 73.052C35.9766 72.4557 33.8063 71.3609 32.2696 69.8241L30.8554 71.2384C32.7353 73.1183 35.2942 74.3568 38.4536 75.0105L38.8589 73.052ZM32.2739 69.8285C30.7611 68.297 29.6395 66.0347 28.9778 62.9467L27.0222 63.3658C27.7355 66.6945 28.9889 69.3488 30.8511 71.234L32.2739 69.8285ZM28.9791 62.9528C28.3319 59.838 28 55.7364 28 50.625H26C26 55.8052 26.3348 60.0578 27.0209 63.3597L28.9791 62.9528ZM97.0625 74H96.0625V75H97.0625V74ZM97.0625 26V25H96.0625V26H97.0625ZM144.188 26H145.188V25H144.188V26ZM144.188 31V32H145.188V31H144.188ZM103.062 31V30H102.062V31H103.062ZM103.062 47H102.062V48H103.062V47ZM142.469 47H143.469V46H142.469V47ZM142.469 52V53H143.469V52H142.469ZM103.062 52V51H102.062V52H103.062ZM103.062 69H102.062V70H103.062V69ZM145.062 69H146.062V68H145.062V69ZM145.062 74V75H146.062V74H145.062ZM98.0625 74V26H96.0625V74H98.0625ZM97.0625 27H144.188V25H97.0625V27ZM143.188 26V31H145.188V26H143.188ZM144.188 30H103.062V32H144.188V30ZM102.062 31V47H104.062V31H102.062ZM103.062 48H142.469V46H103.062V48ZM141.469 47V52H143.469V47H141.469ZM142.469 51H103.062V53H142.469V51ZM102.062 52V69H104.062V52H102.062ZM103.062 70H145.062V68H103.062V70ZM144.062 69V74H146.062V69H144.062ZM145.062 73H97.0625V75H145.062V73ZM174 74H173V75H174V74ZM174 31H175V30H174V31ZM150 31H149V32H150V31ZM150 26V25H149V26H150ZM204 26H205V25H204V26ZM204 31V32H205V31H204ZM180 31V30H179V31H180ZM180 74V75H181V74H180ZM175 74V31H173V74H175ZM174 30H150V32H174V30ZM151 31V26H149V31H151ZM150 27H204V25H150V27ZM203 26V31H205V26H203ZM204 30H180V32H204V30ZM179 31V74H181V31H179ZM180 73H174V75H180V73ZM231.125 74H230.125V75H231.125V74ZM231.125 26V25H230.125V26H231.125ZM237.125 26H238.125V25H237.125V26ZM237.125 74V75H238.125V74H237.125ZM232.125 74V26H230.125V74H232.125ZM231.125 27H237.125V25H231.125V27ZM236.125 26V74H238.125V26H236.125ZM237.125 73H231.125V75H237.125V73ZM249.125 74H248.125V75H249.125V74ZM249.125 26V25H248.125V26H249.125ZM255.375 26L256.019 25.235L255.74 25H255.375V26ZM303.594 66.5938L302.95 67.3587L303.229 67.5938H303.594V66.5938ZM303.656 66.5938V67.5938H304.656V66.5938H303.656ZM303.656 26V25H302.656V26H303.656ZM309.656 26H310.656V25H309.656V26ZM309.656 74V75H310.656V74H309.656ZM303.406 74L302.759 74.7623L303.039 75H303.406V74ZM255.188 33.0625L255.835 32.3002L255.555 32.0625H255.188V33.0625ZM255.125 33.0625V32.0625H254.125V33.0625H255.125ZM255.125 74V75H256.125V74H255.125ZM250.125 74V26H248.125V74H250.125ZM249.125 27H255.375V25H249.125V27ZM254.731 26.765L302.95 67.3587L304.238 65.8288L256.019 25.235L254.731 26.765ZM303.594 67.5938H303.656V65.5938H303.594V67.5938ZM304.656 66.5938V26H302.656V66.5938H304.656ZM303.656 27H309.656V25H303.656V27ZM308.656 26V74H310.656V26H308.656ZM309.656 73H303.406V75H309.656V73ZM304.053 73.2377L255.835 32.3002L254.54 33.8248L302.759 74.7623L304.053 73.2377ZM255.188 32.0625H255.125V34.0625H255.188V32.0625ZM254.125 33.0625V74H256.125V33.0625H254.125ZM255.125 73H249.125V75H255.125V73ZM360.812 74H359.812V75H360.812V74ZM360.812 31H361.812V30H360.812V31ZM336.812 31H335.812V32H336.812V31ZM336.812 26V25H335.812V26H336.812ZM390.812 26H391.812V25H390.812V26ZM390.812 31V32H391.812V31H390.812ZM366.812 31V30H365.812V31H366.812ZM366.812 74V75H367.812V74H366.812ZM361.812 74V31H359.812V74H361.812ZM360.812 30H336.812V32H360.812V30ZM337.812 31V26H335.812V31H337.812ZM336.812 27H390.812V25H336.812V27ZM389.812 26V31H391.812V26H389.812ZM390.812 30H366.812V32H390.812V30ZM365.812 31V74H367.812V31H365.812ZM366.812 73H360.812V75H366.812V73ZM409.406 74.0312L409.615 73.0533L409.609 73.052L409.406 74.0312ZM402.312 70.5312L401.601 71.234L401.605 71.2384L402.312 70.5312ZM398.75 63.1562L397.771 63.3597L397.772 63.3658L398.75 63.1562ZM398.375 38.6875L399.365 38.8309L399.365 38.8299L398.375 38.6875ZM404.688 27.4688L404.212 26.5893L404.207 26.5917L404.688 27.4688ZM411.344 25.5312L411.468 26.5236L411.475 26.5225L411.344 25.5312ZM443.188 25.5312L443.056 26.5226L443.063 26.5235L443.188 25.5312ZM449.812 27.4688L449.332 28.3459L449.337 28.3482L449.812 27.4688ZM456.156 38.6875L455.166 38.8299L455.167 38.8309L456.156 38.6875ZM455.75 63.1562L454.772 62.9467L454.771 62.9528L455.75 63.1562ZM452.188 70.5312L451.48 69.8241L451.476 69.8285L452.188 70.5312ZM445.125 74.0312L444.922 73.052L444.916 73.0534L445.125 74.0312ZM446.062 68.1562L445.593 67.2735L445.587 67.2767L446.062 68.1562ZM449 65.0312L448.103 64.5894L448.098 64.6003L449 65.0312ZM449 34.6875L448.1 35.1238L448.106 35.1347L449 34.6875ZM446.062 31.6875L445.609 32.579L445.618 32.5834L445.627 32.5877L446.062 31.6875ZM441.094 30.4688L441.002 31.4646L441.012 31.4654L441.094 30.4688ZM413.438 30.4688L413.519 31.4655L413.529 31.4646L413.438 30.4688ZM408.438 31.6875L408.879 32.5849L408.885 32.5819L408.438 31.6875ZM405.5 34.6875L404.605 34.2403L404.6 34.2512L405.5 34.6875ZM405.5 65.0312L404.598 65.4623L404.603 65.4731L405.5 65.0312ZM408.438 68.1562L407.962 69.0358L407.968 69.039L408.438 68.1562ZM420.969 74C416.319 74 412.542 73.679 409.615 73.0534L409.197 75.0091C412.312 75.6751 416.243 76 420.969 76V74ZM409.609 73.052C406.727 72.4557 404.556 71.3609 403.02 69.8241L401.605 71.2384C403.485 73.1183 406.044 74.3568 409.204 75.0105L409.609 73.052ZM403.024 69.8285C401.511 68.297 400.39 66.0347 399.728 62.9467L397.772 63.3658C398.485 66.6945 399.739 69.3488 401.601 71.234L403.024 69.8285ZM399.729 62.9528C399.082 59.838 398.75 55.7364 398.75 50.625H396.75C396.75 55.8052 397.085 60.0578 397.771 63.3597L399.729 62.9528ZM398.75 50.625V49.375H396.75V50.625H398.75ZM398.75 49.375C398.75 45.1532 398.957 41.6422 399.365 38.8309L397.385 38.5441C396.959 41.4828 396.75 45.0968 396.75 49.375H398.75ZM399.365 38.8299C399.77 36.0105 400.462 33.7863 401.403 32.1157L399.66 31.1343C398.559 33.0887 397.813 35.5728 397.385 38.5451L399.365 38.8299ZM401.403 32.1157C402.336 30.4587 403.589 29.2105 405.168 28.3458L404.207 26.5917C402.286 27.6437 400.768 29.1663 399.66 31.1343L401.403 32.1157ZM405.163 28.3482C406.795 27.4652 408.886 26.8463 411.468 26.5235L411.22 24.539C408.469 24.8829 406.121 25.5557 404.212 26.5893L405.163 28.3482ZM411.475 26.5225C414.085 26.1759 417.247 26 420.969 26V24C417.19 24 413.936 24.1782 411.212 24.54L411.475 26.5225ZM420.969 26H433.562V24H420.969V26ZM433.562 26C437.284 26 440.446 26.1759 443.056 26.5225L443.319 24.54C440.596 24.1782 437.341 24 433.562 24V26ZM443.063 26.5235C445.646 26.8463 447.724 27.465 449.332 28.3458L450.293 26.5917C448.401 25.5558 446.062 24.8828 443.312 24.539L443.063 26.5235ZM449.337 28.3482C450.936 29.2138 452.197 30.4618 453.129 32.1157L454.871 31.1343C453.761 29.1632 452.231 27.6404 450.288 26.5893L449.337 28.3482ZM453.129 32.1157C454.07 33.7863 454.761 36.0105 455.166 38.8299L457.146 38.5451C456.718 35.5728 455.972 33.0887 454.871 31.1343L453.129 32.1157ZM455.167 38.8309C455.574 41.6422 455.781 45.1532 455.781 49.375H457.781C457.781 45.0968 457.572 41.4828 457.146 38.5441L455.167 38.8309ZM455.781 49.375V50.625H457.781V49.375H455.781ZM455.781 50.625C455.781 55.7353 455.439 59.8346 454.772 62.9467L456.728 63.3658C457.436 60.0613 457.781 55.8064 457.781 50.625H455.781ZM454.771 62.9528C454.13 66.0365 453.01 68.2947 451.48 69.8241L452.895 71.2384C454.782 69.3512 456.036 66.6927 456.729 63.3597L454.771 62.9528ZM451.476 69.8285C449.962 71.3615 447.805 72.4557 444.922 73.052L445.328 75.0105C448.487 74.3568 451.038 73.1177 452.899 71.234L451.476 69.8285ZM444.916 73.0534C441.989 73.679 438.212 74 433.562 74V76C438.288 76 442.219 75.6751 445.334 75.0091L444.916 73.0534ZM433.562 74H420.969V76H433.562V74ZM420.969 70.8125H433.562V68.8125H420.969V70.8125ZM433.562 70.8125C436.562 70.8125 439.109 70.7078 441.195 70.4948L440.992 68.5052C438.996 68.7089 436.521 68.8125 433.562 68.8125V70.8125ZM441.195 70.4948C443.317 70.2783 445.114 69.8065 446.538 69.0358L445.587 67.2767C444.47 67.881 442.954 68.305 440.992 68.5052L441.195 70.4948ZM446.532 69.039C448.024 68.2451 449.149 67.0393 449.902 65.4622L448.098 64.6003C447.518 65.8149 446.684 66.6924 445.593 67.2735L446.532 69.039ZM449.897 65.4731C450.656 63.9329 451.144 61.9407 451.401 59.544L449.412 59.331C449.169 61.6009 448.719 63.338 448.103 64.5894L449.897 65.4731ZM451.401 59.544C451.656 57.1624 451.781 54.1863 451.781 50.625H449.781C449.781 54.147 449.657 57.0459 449.412 59.331L451.401 59.544ZM451.781 50.625V49.375H449.781V50.625H451.781ZM451.781 49.375C451.781 45.6897 451.656 42.6308 451.401 40.2078L449.412 40.4172C449.657 42.7442 449.781 45.7269 449.781 49.375H451.781ZM451.401 40.2078C451.144 37.7722 450.657 35.765 449.894 34.2403L448.106 35.1347C448.718 36.36 449.168 38.1028 449.412 40.4172L451.401 40.2078ZM449.9 34.2512C449.142 32.6879 448.006 31.5169 446.498 30.7873L445.627 32.5877C446.702 33.1081 447.525 33.9371 448.1 35.1238L449.9 34.2512ZM446.516 30.796C445.09 30.0715 443.294 29.6451 441.175 29.4721L441.012 31.4654C442.977 31.6258 444.493 32.0118 445.609 32.579L446.516 30.796ZM441.185 29.4729C439.103 29.2817 436.56 29.1875 433.562 29.1875V31.1875C436.523 31.1875 439.001 31.2808 441.002 31.4646L441.185 29.4729ZM433.562 29.1875H420.969V31.1875H433.562V29.1875ZM420.969 29.1875C417.971 29.1875 415.428 29.2817 413.346 29.4729L413.529 31.4646C415.53 31.2808 418.008 31.1875 420.969 31.1875V29.1875ZM413.356 29.4721C411.236 29.6451 409.433 30.0715 407.99 30.7931L408.885 32.5819C410.025 32.0118 411.555 31.6257 413.519 31.4654L413.356 29.4721ZM407.996 30.7901C406.512 31.52 405.382 32.6875 404.606 34.2403L406.394 35.1347C406.993 33.9375 407.821 33.105 408.879 32.5849L407.996 30.7901ZM404.6 34.2512C403.863 35.7721 403.387 37.775 403.13 40.2078L405.12 40.4172C405.363 38.1 405.804 36.3529 406.4 35.1238L404.6 34.2512ZM403.13 40.2078C402.875 42.6308 402.75 45.6897 402.75 49.375H404.75C404.75 45.7269 404.875 42.7442 405.12 40.4172L403.13 40.2078ZM402.75 49.375V50.625H404.75V49.375H402.75ZM402.75 50.625C402.75 54.1863 402.876 57.1624 403.131 59.544L405.119 59.331C404.874 57.0459 404.75 54.147 404.75 50.625H402.75ZM403.131 59.544C403.387 61.9379 403.864 63.9258 404.598 65.4622L406.402 64.6003C405.803 63.3451 405.363 61.6038 405.119 59.331L403.131 59.544ZM404.603 65.4731C405.375 67.0399 406.494 68.2419 407.962 69.0358L408.913 67.2767C407.839 66.6956 407 65.8143 406.397 64.5894L404.603 65.4731ZM407.968 69.039C409.41 69.8066 411.214 70.2783 413.336 70.4948L413.539 68.5052C411.578 68.3051 410.049 67.8809 408.907 67.2735L407.968 69.039ZM413.336 70.4948C415.423 70.7078 417.969 70.8125 420.969 70.8125V68.8125C418.01 68.8125 415.536 68.7089 413.539 68.5052L413.336 70.4948ZM476.719 74.0312L476.928 73.0533L476.921 73.052L476.719 74.0312ZM469.625 70.5312L468.914 71.234L468.918 71.2384L469.625 70.5312ZM466.062 63.1562L465.083 63.3597L465.085 63.3658L466.062 63.1562ZM465.062 26V25H464.062V26H465.062ZM471.062 26H472.062V25H471.062V26ZM475.781 68.1562L475.305 69.0358L475.311 69.039L475.781 68.1562ZM507.094 69.5L506.992 68.5052L506.991 68.5053L507.094 69.5ZM512.062 68.1562L511.593 67.2735L511.587 67.2767L512.062 68.1562ZM516.812 26V25H515.812V26H516.812ZM522.812 26H523.812V25H522.812V26ZM521.781 63.1562L520.803 62.9467L520.802 62.9528L521.781 63.1562ZM518.219 70.5312L517.512 69.8241L517.507 69.8285L518.219 70.5312ZM511.156 74.0312L510.954 73.052L510.947 73.0534L511.156 74.0312ZM488.281 74C483.632 74 479.854 73.679 476.928 73.0534L476.51 75.0091C479.625 75.6751 483.556 76 488.281 76V74ZM476.921 73.052C474.039 72.4557 471.869 71.3609 470.332 69.8241L468.918 71.2384C470.798 73.1183 473.357 74.3568 476.516 75.0105L476.921 73.052ZM470.336 69.8285C468.824 68.297 467.702 66.0347 467.04 62.9467L465.085 63.3658C465.798 66.6945 467.051 69.3488 468.914 71.234L470.336 69.8285ZM467.042 62.9528C466.394 59.838 466.062 55.7364 466.062 50.625H464.062C464.062 55.8052 464.397 60.0578 465.083 63.3597L467.042 62.9528ZM466.062 50.625V26H464.062V50.625H466.062ZM465.062 27H471.062V25H465.062V27ZM470.062 26V50.625H472.062V26H470.062ZM470.062 50.625C470.062 54.1863 470.188 57.1624 470.443 59.544L472.432 59.331C472.187 57.0459 472.062 54.147 472.062 50.625H470.062ZM470.443 59.544C470.7 61.9407 471.188 63.9329 471.947 65.4731L473.741 64.5894C473.124 63.338 472.675 61.6009 472.432 59.331L470.443 59.544ZM471.947 65.4731C472.718 67.0399 473.838 68.2419 475.305 69.0358L476.257 67.2767C475.183 66.6956 474.344 65.8143 473.741 64.5894L471.947 65.4731ZM475.311 69.039C476.754 69.8066 478.557 70.2783 480.68 70.4948L480.883 68.5052C478.922 68.3051 477.392 67.8809 476.251 67.2735L475.311 69.039ZM480.68 70.4948C482.766 70.7077 485.302 70.8125 488.281 70.8125V68.8125C485.343 68.8125 482.88 68.7089 480.883 68.5052L480.68 70.4948ZM488.281 70.8125H499.594V68.8125H488.281V70.8125ZM499.594 70.8125C502.593 70.8125 505.13 70.7078 507.196 70.4947L506.991 68.5053C505.016 68.7089 502.553 68.8125 499.594 68.8125V70.8125ZM507.195 70.4948C509.317 70.2783 511.114 69.8065 512.538 69.0358L511.587 67.2767C510.47 67.881 508.954 68.305 506.992 68.5052L507.195 70.4948ZM512.532 69.039C514.021 68.2465 515.154 67.0444 515.928 65.4731L514.134 64.5894C513.533 65.8097 512.687 66.691 511.593 67.2735L512.532 69.039ZM515.928 65.4731C516.687 63.9329 517.175 61.9407 517.432 59.544L515.443 59.331C515.2 61.6009 514.751 63.338 514.134 64.5894L515.928 65.4731ZM517.432 59.544C517.687 57.1624 517.812 54.1863 517.812 50.625H515.812C515.812 54.147 515.688 57.0459 515.443 59.331L517.432 59.544ZM517.812 50.625V26H515.812V50.625H517.812ZM516.812 27H522.812V25H516.812V27ZM521.812 26V50.625H523.812V26H521.812ZM521.812 50.625C521.812 55.7353 521.47 59.8346 520.803 62.9467L522.759 63.3658C523.467 60.0613 523.812 55.8064 523.812 50.625H521.812ZM520.802 62.9528C520.161 66.0365 519.041 68.2947 517.512 69.8241L518.926 71.2384C520.813 69.3512 522.068 66.6927 522.76 63.3597L520.802 62.9528ZM517.507 69.8285C515.993 71.3615 513.836 72.4557 510.954 73.052L511.359 75.0105C514.518 74.3568 517.069 73.1177 518.93 71.234L517.507 69.8285ZM510.947 73.0534C508.021 73.679 504.243 74 499.594 74V76C504.319 76 508.25 75.6751 511.365 75.0091L510.947 73.0534ZM499.594 74H488.281V76H499.594V74ZM531.688 38.6875L532.677 38.8309L532.677 38.8299L531.688 38.6875ZM538 27.4688L537.524 26.5893L537.52 26.5917L538 27.4688ZM544.656 25.5312L544.78 26.5236L544.788 26.5225L544.656 25.5312ZM577.719 25.625L577.578 26.6151L577.586 26.6162L577.719 25.625ZM584.844 28.0312L584.285 28.8604L584.296 28.8677L584.844 28.0312ZM588.781 33.3125L587.837 33.6413L587.838 33.644L588.781 33.3125ZM590 42.5312V43.5312H591V42.5312H590ZM584 42.5312H583V43.5312H584V42.5312ZM583.188 35.5L582.235 35.8056L582.236 35.8091L583.188 35.5ZM580.438 31.8438L579.929 32.705L579.935 32.7085L580.438 31.8438ZM575.219 30.4688L575.134 31.4652L575.143 31.4659L575.219 30.4688ZM546.75 30.4688L546.831 31.4655L546.841 31.4646L546.75 30.4688ZM541.75 31.6875L542.191 32.5849L542.197 32.5819L541.75 31.6875ZM538.812 34.6875L537.918 34.2403L537.913 34.2512L538.812 34.6875ZM538.812 65.0312L537.91 65.4623L537.915 65.4731L538.812 65.0312ZM541.75 68.1562L541.274 69.0358L541.28 69.039L541.75 68.1562ZM580.438 68.3125L579.957 67.4357L579.951 67.439L580.438 68.3125ZM583.188 64.7812L584.137 65.0939L584.139 65.0903L583.188 64.7812ZM584 57.7812V56.7812H583V57.7812H584ZM590 57.7812H591V56.7812H590V57.7812ZM588.781 66.9688L587.839 66.6346L588.781 66.9688ZM584.844 72.1562L585.383 72.9987L585.385 72.9971L584.844 72.1562ZM577.719 74.4375L577.593 73.4454L577.592 73.4455L577.719 74.4375ZM542.719 74.0312L542.928 73.0533L542.921 73.052L542.719 74.0312ZM535.625 70.5312L534.914 71.234L534.918 71.2384L535.625 70.5312ZM532.062 63.1562L531.083 63.3597L531.085 63.3658L532.062 63.1562ZM532.062 50.625V49.375H530.062V50.625H532.062ZM532.062 49.375C532.062 45.1532 532.27 41.6422 532.677 38.8309L530.698 38.5441C530.272 41.4828 530.062 45.0968 530.062 49.375H532.062ZM532.677 38.8299C533.083 36.0105 533.774 33.7863 534.715 32.1157L532.972 31.1343C531.872 33.0887 531.125 35.5728 530.698 38.5451L532.677 38.8299ZM534.715 32.1157C535.648 30.4587 536.901 29.2105 538.48 28.3458L537.52 26.5917C535.599 27.6437 534.081 29.1663 532.972 31.1343L534.715 32.1157ZM538.476 28.3482C540.108 27.4652 542.198 26.8463 544.78 26.5235L544.532 24.539C541.781 24.8829 539.434 25.5557 537.524 26.5893L538.476 28.3482ZM544.788 26.5225C547.398 26.1759 550.56 26 554.281 26V24C550.503 24 547.248 24.1782 544.525 24.54L544.788 26.5225ZM554.281 26H566.875V24H554.281V26ZM566.875 26C571.138 26 574.703 26.2072 577.578 26.6151L577.859 24.6349C574.86 24.2094 571.195 24 566.875 24V26ZM577.586 26.6162C580.447 26.9989 582.66 27.7646 584.285 28.8603L585.403 27.2022C583.444 25.8813 580.908 25.0428 577.851 24.6338L577.586 26.6162ZM584.296 28.8677C585.898 29.9177 587.086 31.4857 587.837 33.6413L589.726 32.9837C588.851 30.4726 587.414 28.5198 585.392 27.1948L584.296 28.8677ZM587.838 33.644C588.598 35.8074 589 38.7545 589 42.5312H591C591 38.6413 590.59 35.4426 589.725 32.981L587.838 33.644ZM590 41.5312H584V43.5312H590V41.5312ZM585 42.5312C585 39.4698 584.728 37.0042 584.139 35.1909L582.236 35.8091C582.73 37.3291 583 39.5511 583 42.5312H585ZM584.14 35.1944C583.537 33.3177 582.484 31.8758 580.94 30.979L579.935 32.7085C580.974 33.3117 581.754 34.3073 582.235 35.8056L584.14 35.1944ZM580.946 30.9825C579.493 30.1255 577.585 29.6445 575.294 29.4716L575.143 31.4659C577.269 31.6263 578.84 32.062 579.929 32.705L580.946 30.9825ZM575.303 29.4723C573.057 29.2816 570.245 29.1875 566.875 29.1875V31.1875C570.214 31.1875 572.964 31.2809 575.134 31.4652L575.303 29.4723ZM566.875 29.1875H554.281V31.1875H566.875V29.1875ZM554.281 29.1875C551.284 29.1875 548.741 29.2817 546.659 29.4729L546.841 31.4646C548.843 31.2808 551.32 31.1875 554.281 31.1875V29.1875ZM546.669 29.4721C544.549 29.6451 542.746 30.0715 541.303 30.7931L542.197 32.5819C543.337 32.0118 544.868 31.6257 546.831 31.4654L546.669 29.4721ZM541.309 30.7901C539.825 31.52 538.694 32.6875 537.918 34.2403L539.707 35.1347C540.306 33.9375 541.134 33.105 542.191 32.5849L541.309 30.7901ZM537.913 34.2512C537.175 35.7721 536.699 37.775 536.443 40.2078L538.432 40.4172C538.676 38.1 539.116 36.3529 539.712 35.1238L537.913 34.2512ZM536.443 40.2078C536.188 42.6308 536.062 45.6897 536.062 49.375H538.062C538.062 45.7269 538.187 42.7442 538.432 40.4172L536.443 40.2078ZM536.062 49.375V50.625H538.062V49.375H536.062ZM536.062 50.625C536.062 54.1863 536.188 57.1624 536.443 59.544L538.432 59.331C538.187 57.0459 538.062 54.147 538.062 50.625H536.062ZM536.443 59.544C536.7 61.9379 537.176 63.9258 537.91 65.4622L539.715 64.6003C539.115 63.3451 538.675 61.6038 538.432 59.331L536.443 59.544ZM537.915 65.4731C538.687 67.0399 539.807 68.2419 541.274 69.0358L542.226 67.2767C541.152 66.6956 540.313 65.8143 539.71 64.5894L537.915 65.4731ZM541.28 69.039C542.722 69.8066 544.526 70.2783 546.648 70.4948L546.852 68.5052C544.891 68.3051 543.361 67.8809 542.22 67.2735L541.28 69.039ZM546.648 70.4948C548.735 70.7078 551.282 70.8125 554.281 70.8125V68.8125C551.322 68.8125 548.848 68.7089 546.852 68.5052L546.648 70.4948ZM554.281 70.8125H566.875V68.8125H554.281V70.8125ZM566.875 70.8125C570.241 70.8125 573.046 70.7394 575.285 70.5916L575.153 68.5959C572.975 68.7398 570.217 68.8125 566.875 68.8125V70.8125ZM575.285 70.5916C577.571 70.4406 579.474 69.9941 580.924 69.186L579.951 67.439C578.859 68.0475 577.283 68.4552 575.153 68.5959L575.285 70.5916ZM580.918 69.1893C582.471 68.338 583.531 66.9352 584.137 65.0939L582.238 64.4686C581.76 65.919 580.988 66.8703 579.957 67.4357L580.918 69.1893ZM584.139 65.0903C584.728 63.2775 585 60.8228 585 57.7812H583C583 60.7397 582.731 62.9517 582.236 64.4722L584.139 65.0903ZM584 58.7812H590V56.7812H584V58.7812ZM589 57.7812C589 61.5586 588.598 64.4938 587.839 66.6346L589.724 67.3029C590.59 64.8604 591 61.6706 591 57.7812H589ZM587.839 66.6346C587.09 68.7457 585.905 70.2837 584.302 71.3154L585.385 72.9971C587.407 71.6954 588.847 69.7751 589.724 67.3029L587.839 66.6346ZM584.305 71.3138C582.678 72.3544 580.46 73.0821 577.593 73.4454L577.844 75.4296C580.895 75.0429 583.426 74.2498 585.383 72.9987L584.305 71.3138ZM577.592 73.4455C574.711 73.8134 571.141 74 566.875 74V76C571.192 76 574.852 75.8116 577.845 75.4295L577.592 73.4455ZM566.875 74H554.281V76H566.875V74ZM554.281 74C549.632 74 545.854 73.679 542.928 73.0534L542.51 75.0091C545.625 75.6751 549.556 76 554.281 76V74ZM542.921 73.052C540.039 72.4557 537.869 71.3609 536.332 69.8241L534.918 71.2384C536.798 73.1183 539.357 74.3568 542.516 75.0105L542.921 73.052ZM536.336 69.8285C534.824 68.297 533.702 66.0347 533.04 62.9467L531.085 63.3658C531.798 66.6945 533.051 69.3488 534.914 71.234L536.336 69.8285ZM533.042 62.9528C532.394 59.838 532.062 55.7364 532.062 50.625H530.062C530.062 55.8052 530.397 60.0578 531.083 63.3597L533.042 62.9528ZM600.25 74H599.25V75H600.25V74ZM600.25 26V25H599.25V26H600.25ZM606.25 26H607.25V25H606.25V26ZM606.25 47H605.25V48H606.25V47ZM650.25 47V48H651.25V47H650.25ZM650.25 26V25H649.25V26H650.25ZM656.25 26H657.25V25H656.25V26ZM656.25 74V75H657.25V74H656.25ZM650.25 74H649.25V75H650.25V74ZM650.25 52H651.25V51H650.25V52ZM606.25 52V51H605.25V52H606.25ZM606.25 74V75H607.25V74H606.25ZM601.25 74V26H599.25V74H601.25ZM600.25 27H606.25V25H600.25V27ZM605.25 26V47H607.25V26H605.25ZM606.25 48H650.25V46H606.25V48ZM651.25 47V26H649.25V47H651.25ZM650.25 27H656.25V25H650.25V27ZM655.25 26V74H657.25V26H655.25ZM656.25 73H650.25V75H656.25V73ZM651.25 74V52H649.25V74H651.25ZM650.25 51H606.25V53H650.25V51ZM605.25 52V74H607.25V52H605.25ZM606.25 73H600.25V75H606.25V73Z" fill="white" mask="url(#path-3-outside-2_2020_28)"/>
</svg>
