<svg width="33" height="33" viewBox="0 0 33 33" fill="none" xmlns="http://www.w3.org/2000/svg">
<path d="M3.2998 7.42501C3.2998 7.2062 3.38672 6.99636 3.54144 6.84164C3.69616 6.68693 3.906 6.60001 4.1248 6.60001H28.8748C29.0936 6.60001 29.3035 6.68693 29.4582 6.84164C29.6129 6.99636 29.6998 7.2062 29.6998 7.42501C29.6998 7.64381 29.6129 7.85365 29.4582 8.00837C29.3035 8.16309 29.0936 8.25001 28.8748 8.25001H4.1248C3.906 8.25001 3.69616 8.16309 3.54144 8.00837C3.38672 7.85365 3.2998 7.64381 3.2998 7.42501ZM3.2998 15.675C3.2998 15.4562 3.38672 15.2464 3.54144 15.0916C3.69616 14.9369 3.906 14.85 4.1248 14.85H28.8748C29.0936 14.85 29.3035 14.9369 29.4582 15.0916C29.6129 15.2464 29.6998 15.4562 29.6998 15.675C29.6998 15.8938 29.6129 16.1037 29.4582 16.2584C29.3035 16.4131 29.0936 16.5 28.8748 16.5H4.1248C3.906 16.5 3.69616 16.4131 3.54144 16.2584C3.38672 16.1037 3.2998 15.8938 3.2998 15.675ZM4.1248 23.1C3.906 23.1 3.69616 23.1869 3.54144 23.3416C3.38672 23.4964 3.2998 23.7062 3.2998 23.925C3.2998 24.1438 3.38672 24.3537 3.54144 24.5084C3.69616 24.6631 3.906 24.75 4.1248 24.75H28.8748C29.0936 24.75 29.3035 24.6631 29.4582 24.5084C29.6129 24.3537 29.6998 24.1438 29.6998 23.925C29.6998 23.7062 29.6129 23.4964 29.4582 23.3416C29.3035 23.1869 29.0936 23.1 28.8748 23.1H4.1248Z" fill="white"/>
</svg>
