<svg width="28" height="28" viewBox="0 0 28 28" fill="none" xmlns="http://www.w3.org/2000/svg">
<circle cx="14" cy="14" r="13.4539" fill="#E8F4FE" stroke="white" stroke-width="1.09216"/>
<path d="M17.8936 14.5075C17.8801 12.489 19.5468 11.5 19.6281 11.4594C18.6796 10.0776 17.2161 9.88796 16.6876 9.87441C15.4545 9.73895 14.2621 10.6195 13.6252 10.6195C12.9884 10.6195 12.0127 9.88796 10.9693 9.91505C9.62784 9.94215 8.36764 10.7143 7.67657 11.92C6.25377 14.3855 7.31071 18.0026 8.6793 19.9804C9.35683 20.9558 10.1563 22.0395 11.1997 21.9989C12.216 21.9582 12.5954 21.3486 13.8285 21.3486C15.048 21.3486 15.4003 21.9989 16.4708 21.9718C17.5684 21.9583 18.2595 20.9964 18.9099 20.0075C19.6959 18.8967 20.0075 17.7858 20.0211 17.7316C20.0211 17.7316 17.9207 16.9324 17.8936 14.5075ZM15.8882 8.56036C16.4302 7.86947 16.8096 6.94828 16.7012 6C15.9017 6.04064 14.9125 6.55542 14.3434 7.21922C13.842 7.81528 13.3813 8.77712 13.5033 9.68476C14.3976 9.75249 15.319 9.23771 15.8882 8.56036Z" fill="black"/>
</svg>
