<svg width="28" height="28" viewBox="0 0 28 28" fill="none" xmlns="http://www.w3.org/2000/svg">
<circle cx="14" cy="14" r="13.4539" fill="#E8F4FE" stroke="white" stroke-width="1.09216"/>
<g clip-path="url(#clip0_74_705)">
<path d="M7.33337 7.33325H21.3334V21.3333H7.33337V7.33325Z" fill="#F7DF1E"/>
<path d="M11.0145 19.0326L12.0858 18.3842C12.2925 18.7507 12.4805 19.0608 12.9315 19.0608C13.3638 19.0608 13.6365 18.8917 13.6365 18.2339V13.7606H14.9521V18.2525C14.9521 19.6151 14.1533 20.2354 12.9879 20.2354C11.9355 20.2354 11.3245 19.6903 11.0144 19.0325M15.6667 18.8916L16.7379 18.2714C17.0199 18.7319 17.3864 19.0702 18.0348 19.0702C18.58 19.0702 18.9276 18.7977 18.9276 18.4217C18.9276 17.9707 18.5705 17.8109 17.969 17.5478L17.6402 17.4067C16.691 17.0028 16.0614 16.4953 16.0614 15.4239C16.0614 14.4371 16.8131 13.6853 17.9879 13.6853C18.8243 13.6853 19.4257 13.9767 19.858 14.7379L18.8336 15.3958C18.608 14.9917 18.3637 14.8319 17.9878 14.8319C17.6025 14.8319 17.3582 15.0763 17.3582 15.3958C17.3582 15.7904 17.6025 15.9503 18.1663 16.1946L18.4952 16.3356C19.6136 16.8149 20.2432 17.3035 20.2432 18.403C20.2432 19.5872 19.3128 20.2356 18.063 20.2356C16.8413 20.2356 16.0519 19.6529 15.6666 18.8917" fill="black"/>
</g>
<defs>
<clipPath id="clip0_74_705">
<rect width="14" height="14" fill="white" transform="translate(7.33337 7.33325)"/>
</clipPath>
</defs>
</svg>
