<svg width="135" height="59" viewBox="0 0 135 59" fill="none" xmlns="http://www.w3.org/2000/svg">
<path d="M33 0L61.5788 14.75V44.25L33 59L4.42116 44.25V14.75L33 0Z" fill="white"/>
<path d="M32.94 28.98C32.94 31.2733 32.32 33.0667 31.08 34.36C29.8533 35.64 28.1133 36.28 25.86 36.28C24.34 36.28 22.9667 35.96 21.74 35.32C20.5267 34.68 19.58 33.8067 18.9 32.7C18.2333 31.5933 17.9 30.36 17.9 29C17.9 27.6267 18.2333 26.3867 18.9 25.28C19.5667 24.1733 20.4867 23.3067 21.66 22.68C22.8333 22.04 24.14 21.72 25.58 21.72C26.4867 21.72 27.4067 21.8467 28.34 22.1C29.2867 22.34 30.0733 22.6667 30.7 23.08L31.1 25.9H30.92C30.64 24.78 29.9933 23.9067 28.98 23.28C27.9667 22.64 26.84 22.32 25.6 22.32C23.8267 22.32 22.3467 22.9533 21.16 24.22C19.9867 25.4733 19.4 27.0533 19.4 28.96C19.4 30.8667 20.0067 32.4667 21.22 33.76C22.4467 35.04 24.0467 35.68 26.02 35.68C27.9933 35.68 29.6 35.04 30.84 33.76C32.0933 32.48 32.72 30.7267 32.72 28.5H32.92C32.9333 28.66 32.94 28.82 32.94 28.98ZM35.8658 35.82C35.6924 35.9933 35.4791 36.08 35.2258 36.08C34.9724 36.08 34.7591 35.9933 34.5858 35.82C34.4124 35.6467 34.3258 35.4333 34.3258 35.18C34.3258 34.9267 34.4124 34.7133 34.5858 34.54C34.7591 34.3667 34.9724 34.28 35.2258 34.28C35.4791 34.28 35.6924 34.3667 35.8658 34.54C36.0391 34.7133 36.1258 34.9267 36.1258 35.18C36.1258 35.4333 36.0391 35.6467 35.8658 35.82ZM39.38 30.68C38.6867 31.5867 38.34 32.5667 38.34 33.62C38.34 34.8733 38.8667 35.8467 39.92 36.54C40.5333 36.9533 41.2267 37.16 42 37.16C42.7867 37.16 43.4667 37.0067 44.04 36.7C45.12 36.14 45.7267 35.2 45.86 33.88C45.8733 33.7867 45.88 33.6933 45.88 33.6C45.88 33.1067 45.74 32.5733 45.46 32C45.1933 31.4267 44.7533 30.9 44.14 30.42L40.54 27.58C39.7533 26.9667 39.36 26.1733 39.36 25.2C39.36 24.2267 39.6733 23.4067 40.3 22.74C40.9267 22.06 41.7733 21.72 42.84 21.72C43.3733 21.72 43.9533 21.7867 44.58 21.92H45.38L45.42 24.38H45.22C45.2067 23.74 44.9733 23.24 44.52 22.88C44.08 22.5067 43.52 22.32 42.84 22.32C42.1733 22.32 41.6133 22.5467 41.16 23C40.7067 23.44 40.48 24.0133 40.48 24.72C40.48 25.4133 40.7733 25.9933 41.36 26.46L45.06 29.38C46.5267 30.54 47.26 31.94 47.26 33.58C47.26 34.8067 46.7733 35.86 45.8 36.74C44.96 37.5 43.84 37.88 42.44 37.88C41.5867 37.88 40.8267 37.72 40.16 37.4C38.9067 36.8133 38.1533 35.8133 37.9 34.4C37.86 34.1867 37.84 33.92 37.84 33.6C37.84 33.2667 37.9333 32.82 38.12 32.26C38.3067 31.6867 38.6667 31.1133 39.2 30.54L39.38 30.68Z" fill="black"/>
<path d="M74.54 24.66C74.4867 24.4867 74.46 24.34 74.46 24.22C74.46 24.0867 74.4667 23.94 74.48 23.78C74.4933 23.62 74.52 23.4 74.56 23.12C74.6133 22.84 74.7067 22.5667 74.84 22.3C74.9733 22.02 75.1267 21.7533 75.3 21.5C75.4733 21.2467 75.6933 21.0133 75.96 20.8C76.24 20.5867 76.5467 20.4 76.88 20.24C77.5867 19.8933 78.4467 19.72 79.46 19.72C81.5 19.72 83.16 20.4 84.44 21.76C85.7333 23.1067 86.38 24.8333 86.38 26.94C86.38 29.0467 85.62 30.8 84.1 32.2C82.58 33.5867 80.6533 34.28 78.32 34.28C75.9867 34.28 74.0467 33.5867 72.5 32.2C70.9667 30.8133 70.2 29.0133 70.2 26.8C70.2 25.3733 70.5333 24.1067 71.2 23C71.8667 21.8933 72.82 21.0267 74.06 20.4L74.18 20.58C73.3133 21.1533 72.6867 21.98 72.3 23.06C71.9267 24.14 71.74 25.2867 71.74 26.5C71.74 28.7533 72.3533 30.5133 73.58 31.78C74.8067 33.0467 76.38 33.68 78.3 33.68C80.22 33.68 81.7867 33.0467 83 31.78C84.2267 30.5 84.84 28.82 84.84 26.74C84.84 24.94 84.3533 23.42 83.38 22.18C82.42 20.94 81.06 20.32 79.3 20.32C78.5133 20.32 77.8 20.46 77.16 20.74C76 21.2333 75.2333 22.0467 74.86 23.18C74.7533 23.5133 74.7 23.8 74.7 24.04C74.7 24.28 74.7133 24.4733 74.74 24.62L74.54 24.66ZM102.568 20.2C102.234 20.2 101.948 20.32 101.708 20.56C101.468 20.7867 101.341 21.0667 101.328 21.4V31.72C101.328 32.4933 101.374 33.2267 101.468 33.92L101.508 34.28H101.328L90.4278 22.64V32.6C90.4278 32.9333 90.5478 33.22 90.7878 33.46C91.0278 33.6867 91.3145 33.8 91.6478 33.8H92.0278V34H87.9078V33.8H88.2878C88.6211 33.8 88.9078 33.6867 89.1478 33.46C89.3878 33.22 89.5078 32.9267 89.5078 32.58V22.2C89.5078 21.3867 89.4611 20.66 89.3678 20.02L89.3278 19.7H89.5278L100.428 31.34V21.42C100.414 21.0733 100.288 20.7867 100.048 20.56C99.8078 20.32 99.5211 20.2 99.1878 20.2H98.8078V20H102.928V20.2H102.568ZM117.851 33.8H118.011V34H113.511V33.8H113.691C113.971 33.8 114.178 33.7133 114.311 33.54C114.458 33.3533 114.531 33.18 114.531 33.02C114.531 32.86 114.505 32.7 114.451 32.54L113.171 29.14H107.771L106.431 32.56C106.378 32.72 106.351 32.88 106.351 33.04C106.351 33.1867 106.418 33.3533 106.551 33.54C106.698 33.7133 106.911 33.8 107.191 33.8H107.371V34H103.351V33.8H103.531C103.865 33.8 104.191 33.6933 104.511 33.48C104.831 33.2667 105.091 32.9533 105.291 32.54L109.811 21.78C110.305 20.7 110.551 20.0133 110.551 19.72H110.731L116.091 32.54C116.278 32.9533 116.531 33.2667 116.851 33.48C117.171 33.6933 117.505 33.8 117.851 33.8ZM108.011 28.54H112.931L110.531 22.12L108.011 28.54ZM128.71 33.8C129.056 33.8 129.35 33.68 129.59 33.44C129.843 33.1867 129.976 32.8933 129.99 32.56V27.38H121.81V32.56C121.81 32.9067 121.936 33.2 122.19 33.44C122.443 33.68 122.743 33.8 123.09 33.8H123.35V34H118.97V33.8H119.23C119.576 33.8 119.87 33.68 120.11 33.44C120.363 33.2 120.496 32.9067 120.51 32.56V21.44C120.496 21.0933 120.363 20.8 120.11 20.56C119.87 20.32 119.576 20.2 119.23 20.2H118.97V20H123.35V20.2H123.09C122.743 20.2 122.443 20.32 122.19 20.56C121.95 20.8 121.823 21.0933 121.81 21.44V26.78H129.99V21.44C129.976 20.96 129.763 20.6 129.35 20.36C129.15 20.2533 128.936 20.2 128.71 20.2H128.45V20H132.83V20.2H132.57C132.223 20.2 131.923 20.3267 131.67 20.58C131.43 20.82 131.303 21.1133 131.29 21.46V32.56C131.303 32.9067 131.43 33.2 131.67 33.44C131.923 33.68 132.223 33.8 132.57 33.8H132.83V34H128.45V33.8H128.71Z" fill="white"/>
</svg>
