<svg width="19" height="20" viewBox="0 0 19 20" fill="none" xmlns="http://www.w3.org/2000/svg">
<path d="M1.13696 1.43396L9.87696 10.005L1.20196 18.655C1.06003 18.4701 0.949858 18.263 0.875956 18.042C0.837735 17.7917 0.837735 17.5372 0.875956 17.287V2.56696C0.849956 2.17196 0.940956 1.77696 1.13596 1.43396M13.642 6.26696L10.789 9.09296L2.15296 0.599956C2.43296 0.502956 2.73296 0.475957 3.02596 0.521957C3.48596 0.647957 3.92496 0.841957 4.32796 1.09496L12.144 5.41996C12.652 5.69296 13.147 5.97996 13.642 6.26696ZM10.79 10.93L13.629 13.718L11.571 14.864L5.29196 18.354C4.77196 18.641 4.24996 18.915 3.74196 19.228C3.52458 19.3633 3.28084 19.4507 3.027 19.4843C2.77316 19.5179 2.51507 19.497 2.26996 19.423L10.79 10.93ZM18.15 10.005C18.1572 10.3546 18.0689 10.6997 17.8944 11.0028C17.7199 11.3059 17.466 11.5556 17.16 11.725L14.814 13.027L11.727 10.005L14.827 6.93096C15.622 7.37396 16.404 7.81696 17.185 8.23396C17.4964 8.40805 17.7523 8.66676 17.9229 8.98016C18.0935 9.29357 18.1728 9.64886 18.15 10.005Z" fill="white"/>
</svg>
