<svg width="24" height="24" viewBox="0 0 24 24" fill="none" xmlns="http://www.w3.org/2000/svg">
<rect x="0.5" y="0.5" width="23" height="23" rx="7.5" fill="#FEF6E7"/>
<rect x="0.5" y="0.5" width="23" height="23" rx="7.5" stroke="#FBE2B7"/>
<path fill-rule="evenodd" clip-rule="evenodd" d="M7.65408 14.0888L10.8097 8.20228C11.3116 7.26591 12.6884 7.26591 13.1903 8.20228L16.3459 14.0888C16.8123 14.9588 16.1638 16 15.1556 16H8.84442C7.83621 16 7.18772 14.9588 7.65408 14.0888ZM12 9C12.2761 9 12.5 9.22386 12.5 9.5V13C12.5 13.2761 12.2761 13.5 12 13.5C11.7239 13.5 11.5 13.2761 11.5 13V9.5C11.5 9.22386 11.7239 9 12 9ZM11.375 14.375C11.375 14.7202 11.6548 15 12 15C12.3452 15 12.625 14.7202 12.625 14.375C12.625 14.0298 12.3452 13.75 12 13.75C11.6548 13.75 11.375 14.0298 11.375 14.375Z" fill="#DD900D"/>
</svg>
