<svg width="20" height="20" viewBox="0 0 20 20" fill="none" xmlns="http://www.w3.org/2000/svg">
<path d="M16.3241 5.57166C15.4919 5.39364 14.7383 4.95445 14.1732 4.31812C13.608 3.68179 13.2609 2.88158 13.1824 2.03416V1.66666H10.3116V13.06C10.3098 13.5644 10.1501 14.0555 9.85474 14.4645C9.55943 14.8734 9.14341 15.1795 8.66515 15.3397C8.18689 15.5 7.67044 15.5064 7.18836 15.358C6.70628 15.2097 6.2828 14.914 5.97745 14.5125C5.66735 14.1043 5.49533 13.608 5.48633 13.0954C5.47734 12.5829 5.63183 12.0808 5.92742 11.662C6.223 11.2432 6.64431 10.9294 7.13024 10.7662C7.61617 10.6029 8.14146 10.5987 8.62995 10.7542V7.83749C7.54066 7.68691 6.43154 7.88057 5.45774 8.39138C4.48393 8.90219 3.69415 9.70461 3.19884 10.6864C2.70354 11.6682 2.5275 12.7802 2.69535 13.867C2.86319 14.9538 3.36653 15.9609 4.13495 16.7475C4.86774 17.4973 5.80735 18.0117 6.83383 18.2251C7.8603 18.4385 8.92708 18.3411 9.89799 17.9455C10.8689 17.5499 11.6999 16.8739 12.2849 16.0039C12.8699 15.1339 13.1824 14.1092 13.1824 13.0608V7.23916C14.3426 8.0686 15.7337 8.51336 17.1599 8.51082V5.65832C16.8791 5.65867 16.5989 5.62962 16.3241 5.57166Z" fill="white"/>
</svg>
